<?xml version="1.0" encoding="utf-8"?>
<!-- Generator: Adobe Illustrator 27.7.0, SVG Export Plug-In . SVG Version: 6.00 Build 0)  -->
<svg version="1.1" id="Layer_1" xmlns="http://www.w3.org/2000/svg" xmlns:xlink="http://www.w3.org/1999/xlink" x="0px" y="0px"
	 viewBox="0 0 1920 1080" style="enable-background:new 0 0 1920 1080;" xml:space="preserve">
<style type="text/css">
	.st0{fill:none;stroke:#BFD2F5;stroke-miterlimit:10;}
	.st1{fill:none;stroke:#BDD2F4;stroke-miterlimit:10;}
	.st2{fill:none;stroke:#BBD1F2;stroke-miterlimit:10;}
	.st3{fill:none;stroke:#B9D1F1;stroke-miterlimit:10;}
	.st4{fill:none;stroke:#B7D1F0;stroke-miterlimit:10;}
	.st5{fill:none;stroke:#B5D0EF;stroke-miterlimit:10;}
	.st6{fill:none;stroke:#B3D0ED;stroke-miterlimit:10;}
	.st7{fill:none;stroke:#B1D0EC;stroke-miterlimit:10;}
	.st8{fill:none;stroke:#AFCFEB;stroke-miterlimit:10;}
	.st9{fill:none;stroke:#ADCFE9;stroke-miterlimit:10;}
	.st10{fill:none;stroke:#ABCFE8;stroke-miterlimit:10;}
	.st11{fill:none;stroke:#A9CEE7;stroke-miterlimit:10;}
	.st12{fill:none;stroke:#A7CEE5;stroke-miterlimit:10;}
	.st13{fill:none;stroke:#A5CEE4;stroke-miterlimit:10;}
	.st14{fill:none;stroke:#A3CDE3;stroke-miterlimit:10;}
	.st15{fill:none;stroke:#A1CDE2;stroke-miterlimit:10;}
	.st16{fill:none;stroke:#A0CDE0;stroke-miterlimit:10;}
	.st17{fill:none;stroke:#9ECCDF;stroke-miterlimit:10;}
	.st18{fill:none;stroke:#9CCCDE;stroke-miterlimit:10;}
	.st19{fill:none;stroke:#9ACCDC;stroke-miterlimit:10;}
	.st20{fill:none;stroke:#98CBDB;stroke-miterlimit:10;}
	.st21{fill:none;stroke:#96CBDA;stroke-miterlimit:10;}
	.st22{fill:none;stroke:#94CBD9;stroke-miterlimit:10;}
	.st23{fill:none;stroke:#92CAD7;stroke-miterlimit:10;}
	.st24{fill:none;stroke:#90CAD6;stroke-miterlimit:10;}
	.st25{fill:none;stroke:#8ECAD5;stroke-miterlimit:10;}
	.st26{fill:none;stroke:#8CC9D3;stroke-miterlimit:10;}
	.st27{fill:none;stroke:#8AC9D2;stroke-miterlimit:10;}
	.st28{fill:none;stroke:#88C9D1;stroke-miterlimit:10;}
	.st29{fill:none;stroke:#86C8CF;stroke-miterlimit:10;}
	.st30{fill:none;stroke:#84C8CE;stroke-miterlimit:10;}
	.st31{fill:none;stroke:#82C8CD;stroke-miterlimit:10;}
	.st32{fill:none;stroke:#80C8CC;stroke-miterlimit:10;}
	.st33{fill:none;stroke:#7EC7CA;stroke-miterlimit:10;}
	.st34{fill:none;stroke:#7CC7C9;stroke-miterlimit:10;}
	.st35{fill:none;stroke:#7AC7C8;stroke-miterlimit:10;}
	.st36{fill:none;stroke:#78C6C6;stroke-miterlimit:10;}
	.st37{fill:none;stroke:#76C6C5;stroke-miterlimit:10;}
	.st38{fill:none;stroke:#74C6C4;stroke-miterlimit:10;}
	.st39{fill:none;stroke:#72C5C2;stroke-miterlimit:10;}
	.st40{fill:none;stroke:#70C5C1;stroke-miterlimit:10;}
	.st41{fill:none;stroke:#6EC5C0;stroke-miterlimit:10;}
	.st42{fill:none;stroke:#6CC4BF;stroke-miterlimit:10;}
	.st43{fill:none;stroke:#6AC4BD;stroke-miterlimit:10;}
	.st44{fill:none;stroke:#68C4BC;stroke-miterlimit:10;}
	.st45{fill:none;stroke:#66C3BB;stroke-miterlimit:10;}
	.st46{fill:none;stroke:#65C3B9;stroke-miterlimit:10;}
	.st47{fill:none;stroke:#63C3B8;stroke-miterlimit:10;}
	.st48{fill:none;stroke:#61C2B7;stroke-miterlimit:10;}
	.st49{fill:none;stroke:#5FC2B6;stroke-miterlimit:10;}
	.st50{fill:none;stroke:#5DC2B4;stroke-miterlimit:10;}
	.st51{fill:none;stroke:#5BC1B3;stroke-miterlimit:10;}
	.st52{fill:none;stroke:#59C1B2;stroke-miterlimit:10;}
	.st53{fill:none;stroke:#57C1B0;stroke-miterlimit:10;}
	.st54{fill:none;stroke:#55C0AF;stroke-miterlimit:10;}
	.st55{fill:none;stroke:#53C0AE;stroke-miterlimit:10;}
	.st56{fill:none;stroke:#51C0AC;stroke-miterlimit:10;}
	.st57{fill:none;stroke:#4FBFAB;stroke-miterlimit:10;}
	.st58{fill:none;stroke:#4DBFAA;stroke-miterlimit:10;}
	.st59{fill:none;stroke:#4BBFA9;stroke-miterlimit:10;}
	.st60{fill:none;stroke:#49BEA7;stroke-miterlimit:10;}
	.st61{fill:none;stroke:#47BEA6;stroke-miterlimit:10;}
</style>
<g>
	<path class="st0" d="M-70.55,742.26c-5.79-52.33-1.24-110.05,33.43-149.68c44.52-50.88,121.04-54.51,188.65-54.33
		c36.36,0.1,74.62,0.68,106.09,18.89c21.48,12.43,37.8,32.03,52.57,51.98c90.21,121.86,142.5,273.94,257.78,372.42
		c18.28,15.62,38.62,29.96,62.03,35.43c61.23,14.29,118.46-35.11,155.66-85.8c100.76-137.3,143.7-308.16,227.31-456.54
		c26.36-46.78,57.39-91.98,99.19-125.67s95.74-54.99,149.08-48.83c86.22,9.96,148.9,85.83,191.92,161.22
		c82.33,144.29,128.19,307.09,210.79,451.23c20.14,35.14,49.9,73.22,90.37,71.55c21.95-0.91,41.58-13.92,57.73-28.8
		c66.96-61.69,102.16-165.85,190.08-189.53"/>
	<path class="st1" d="M-70.61,732.85c-4.97-51.93,0.38-108.88,35.33-147.75c32.35-35.98,81.02-47.59,130.8-50.83
		c19.28-1.25,38.73-1.25,57.48-0.95c28.17,0.44,57.46,1.21,83.84,10.25c7.43,2.55,14.63,5.75,21.51,9.79
		c21.37,12.55,37.67,32.14,52.48,52.05c11.37,15.28,22.16,31.02,32.58,47.04c18.99,29.21,36.8,59.36,54.47,89.11
		c39.68,66.84,77.52,132.16,129.54,187.83c13.22,14.14,27.32,27.7,42.45,40.45c18.36,15.46,38.69,29.86,61.99,35.46
		c60.43,14.51,116.94-33.93,153.67-83.44c33.54-45.22,60.59-94.18,84.89-144.78c47.76-99.47,84.38-205.57,139.59-301.38
		c17.96-31.17,38.47-61.38,63.28-87.94c11.09-11.88,23.1-23.04,36.13-33.2c15.93-12.41,33.57-23.23,52.13-31.74
		c14.97-6.86,30.51-12.17,46.35-15.4c16.55-3.37,33.44-4.49,50.27-2.87c36.97,3.57,69.61,19.25,98.23,41.77
		c37.59,29.55,68.27,70.88,92.98,112.27c24.6,41.19,46.42,84.22,66.88,128.63c48.47,106.83,89.73,217.26,148.99,318.5
		c10.74,18.34,24.14,37.49,40.28,51.01c10.16,8.54,21.36,14.87,33.68,17.61c5.43,1.21,11.09,1.71,16.97,1.39
		c21.88-1.22,41.47-14.35,57.63-29.33c67.01-62.09,102.67-166.05,190.05-190.91"/>
	<path class="st2" d="M-70.66,723.45c-4.15-51.53,2-107.7,37.24-145.82c32.6-35.29,81.22-46.37,130.75-49.02
		c19.2-1.01,38.52-0.77,57.15-0.22c27.98,0.81,57.02,1.97,83.23,11.25c7.38,2.61,14.53,5.87,21.38,9.95
		c21.25,12.67,37.54,32.26,52.39,52.12c11.4,15.25,22.24,30.93,32.74,46.88c19.14,29.06,37.24,58.99,55.17,88.08
		c40.25,65.36,77.39,127.58,129.7,181.77c13.3,13.77,27.49,27.09,42.7,39.7c18.43,15.3,38.76,29.76,61.95,35.49
		c59.63,14.73,115.42-32.74,151.68-81.08c33.11-44.15,59.81-91.96,83.8-141.39c47.16-97.16,82.84-201.15,137.84-294.4
		c17.71-30.03,38.28-58.87,63.21-84.45c11.14-11.45,23.26-22.24,36.4-32.16c16.08-12.1,33.87-22.8,52.44-31.44
		c14.98-6.97,30.4-12.5,46.11-15.98c16.41-3.63,33.16-5.04,49.86-3.77c36.66,2.82,69.07,17.56,97.52,39.02
		c37.38,28.14,67.97,67.84,92.99,107.84c24.9,39.79,47.42,81.66,68.5,125.61c49.59,106.53,92.14,216.54,152.45,317.42
		c10.93,18.28,24.55,37.36,40.84,50.52c10.24,8.32,21.44,14.34,33.73,16.84c5.42,1.1,11.06,1.51,16.91,1.1
		c21.8-1.54,41.36-14.79,57.53-29.87c67.05-62.49,103.17-166.24,190.03-192.28"/>
	<path class="st3" d="M-70.72,714.04c-3.33-51.13,3.63-106.52,39.14-143.89c32.85-34.59,81.42-45.16,130.71-47.21
		c19.11-0.77,38.31-0.29,56.81,0.51c27.79,1.18,56.59,2.72,82.61,12.24c7.33,2.68,14.44,5.99,21.24,10.1
		c21.14,12.8,37.42,32.37,52.3,52.19c11.43,15.22,22.33,30.85,32.91,46.71c19.29,28.92,37.68,58.62,55.86,87.06
		c40.82,63.89,77.25,122.99,129.86,175.71c13.38,13.39,27.67,26.47,42.94,38.96c18.5,15.14,38.83,29.66,61.91,35.52
		c58.83,14.94,113.9-31.56,149.69-78.71c32.68-43.08,59.03-89.74,82.71-137.99c46.56-94.85,81.28-196.75,136.1-287.41
		c17.47-28.89,38.09-56.36,63.15-80.96c11.19-11.02,23.43-21.45,36.67-31.12c16.23-11.79,34.17-22.36,52.75-31.14
		c14.98-7.07,30.29-12.83,45.88-16.56c16.28-3.89,32.89-5.6,49.45-4.67c36.36,2.08,68.53,15.87,96.81,36.28
		c37.17,26.74,67.68,64.81,93,103.4c25.2,38.39,48.42,79.09,70.12,122.59c50.7,106.23,94.55,215.81,155.9,316.35
		c11.12,18.22,24.95,37.22,41.4,50.03c10.32,8.09,21.53,13.81,33.78,16.07c5.41,0.99,11.03,1.31,16.86,0.82
		c21.73-1.85,41.24-15.23,57.43-30.4c67.1-62.89,103.67-166.43,190.01-193.65"/>
	<path class="st4" d="M-70.78,704.63c-2.52-50.73,5.25-105.34,41.05-141.96c33.1-33.9,81.63-43.94,130.67-45.39
		c19.02-0.54,38.1,0.19,56.48,1.25c27.6,1.55,56.15,3.48,82,13.23c7.28,2.74,14.34,6.11,21.11,10.26
		c21.02,12.92,37.29,32.48,52.21,52.27c11.46,15.19,22.42,30.77,33.07,46.55c19.43,28.78,38.11,58.25,56.56,86.03
		c41.39,62.42,77.12,118.41,130.02,169.64c13.46,13.01,27.84,25.86,43.18,38.22c18.57,14.98,38.9,29.56,61.87,35.55
		c58.03,15.15,112.38-30.37,147.7-76.35c32.26-42.01,58.25-87.51,81.63-134.6c45.96-92.54,79.72-192.36,134.36-280.43
		c17.22-27.75,37.9-53.85,63.08-77.47c11.25-10.58,23.59-20.66,36.95-30.08c16.38-11.48,34.46-21.93,53.06-30.84
		c14.99-7.17,30.18-13.16,45.64-17.14c16.15-4.15,32.62-6.16,49.04-5.57c36.05,1.34,67.99,14.19,96.1,33.53
		c36.96,25.33,67.39,61.77,93,98.96c25.5,36.99,49.42,76.53,71.74,119.58c51.82,105.94,96.96,215.09,159.36,315.27
		c11.31,18.15,25.39,37.06,41.95,49.54c10.42,7.85,21.61,13.28,33.83,15.3c5.39,0.89,11,1.11,16.81,0.53
		c21.66-2.17,41.13-15.67,57.33-30.93c67.14-63.29,104.18-166.62,189.98-195.02"/>
	<path class="st5" d="M-70.84,695.22c-1.7-50.33,6.88-104.17,42.95-140.03c33.35-33.2,81.83-42.73,130.62-43.58
		c18.93-0.3,37.89,0.67,56.15,1.98c27.4,1.92,55.72,4.24,81.39,14.23c7.23,2.81,14.25,6.23,20.98,10.42
		c20.91,13.04,37.17,32.59,52.13,52.34c11.49,15.16,22.5,30.68,33.24,46.39c19.58,28.63,38.55,57.88,57.26,85
		c41.97,60.94,76.99,113.82,130.18,163.58c13.54,12.63,28.02,25.25,43.42,37.48c18.64,14.82,38.97,29.45,61.83,35.58
		c57.23,15.35,110.86-29.19,145.72-73.99c31.83-40.93,57.47-85.29,80.54-131.21c45.36-90.23,78.14-188,132.61-273.44
		c16.98-26.63,37.71-51.34,63.02-73.98c11.3-10.15,23.75-19.86,37.22-29.04c16.53-11.18,34.76-21.49,53.38-30.54
		c14.99-7.27,30.07-13.49,45.41-17.72c16.02-4.41,32.35-6.72,48.63-6.47c35.74,0.6,67.44,12.5,95.39,30.79
		c36.75,23.92,67.1,58.74,93.01,94.53c25.8,35.6,50.42,73.96,73.37,116.56c52.94,105.64,99.37,214.36,162.81,314.19
		c11.5,18.09,25.8,36.92,42.51,49.05c10.5,7.62,21.69,12.75,33.88,14.53c5.38,0.78,10.97,0.9,16.76,0.25
		c21.59-2.48,41.02-16.1,57.23-31.47c67.19-63.69,104.68-166.81,189.96-196.39"/>
	<path class="st6" d="M-70.9,685.81c-0.88-49.93,8.5-102.99,44.85-138.1c33.61-32.51,82.03-41.51,130.58-41.77
		c18.84-0.06,37.68,1.16,55.81,2.71c27.21,2.29,55.28,5,80.78,15.22c7.18,2.87,14.15,6.34,20.84,10.57
		c20.79,13.16,37.04,32.7,52.04,52.41c11.52,15.13,22.59,30.6,33.4,46.22c19.73,28.49,38.99,57.51,57.95,83.98
		c42.54,59.47,76.85,109.24,130.34,157.52c13.62,12.26,28.2,24.64,43.66,36.74c18.71,14.66,39.04,29.35,61.79,35.62
		c56.42,15.55,109.34-28.01,143.73-71.63c31.4-39.86,56.69-83.07,79.45-127.81c44.76-87.92,76.55-183.66,130.87-266.46
		c16.73-25.51,37.52-48.82,62.95-70.49c11.35-9.72,23.9-19.1,37.49-28c16.66-10.9,35.05-21.06,53.69-30.25
		c14.99-7.38,29.96-13.81,45.17-18.3c15.88-4.67,32.08-7.27,48.23-7.37c35.44-0.15,66.9,10.82,94.69,28.05
		c36.54,22.51,66.8,55.7,93.01,90.09c26.1,34.2,51.42,71.4,74.99,113.54c54.05,105.35,101.78,213.64,166.27,313.12
		c11.69,18.03,26.21,36.78,43.07,48.55c10.59,7.39,21.77,12.22,33.93,13.76c5.37,0.67,10.93,0.7,16.7-0.03
		c21.52-2.8,40.91-16.54,57.13-32c67.24-64.09,105.19-167,189.94-197.77"/>
	<path class="st7" d="M-70.96,676.4c-0.06-49.53,10.13-101.81,46.76-136.17c33.86-31.81,82.24-40.3,130.54-39.96
		c18.75,0.18,37.47,1.64,55.48,3.45c27.02,2.65,54.85,5.76,80.17,16.22c7.13,2.94,14.06,6.46,20.71,10.73
		c20.68,13.28,36.91,32.81,51.95,52.48c11.55,15.1,22.67,30.52,33.57,46.06c19.87,28.35,39.42,57.14,58.65,82.95
		c43.11,58,76.72,104.65,130.5,151.46c13.69,11.88,28.37,24.02,43.9,35.99c18.78,14.51,39.1,29.24,61.75,35.65
		c55.62,15.74,107.82-26.82,141.74-69.27c30.97-38.79,55.92-80.85,78.37-124.42c44.15-85.6,74.95-179.35,129.13-259.48
		c16.5-24.4,37.33-46.31,62.89-67c11.4-9.28,24.06-18.31,37.77-26.95c16.81-10.6,35.35-20.63,54-29.95
		c15-7.48,29.85-14.14,44.94-18.87c15.75-4.93,31.81-7.83,47.82-8.27c35.13-0.89,66.36,9.13,93.98,25.3
		c36.32,21.1,66.51,52.67,93.02,85.65c26.4,32.8,52.42,68.83,76.61,110.52c55.17,105.05,104.19,212.92,169.72,312.04
		c11.88,17.97,26.62,36.64,43.63,48.06c10.67,7.17,21.85,11.7,33.98,12.99c5.35,0.57,10.9,0.5,16.65-0.32
		c21.45-3.11,40.8-16.98,57.03-32.54c67.28-64.49,105.69-167.19,189.92-199.14"/>
	<path class="st8" d="M-71.02,666.99c0.75-49.13,11.75-100.63,48.66-134.25c34.11-31.12,82.44-39.08,130.49-38.14
		c18.66,0.42,37.26,2.12,55.15,4.18c26.82,3.02,54.41,6.52,79.55,17.21c7.08,3,13.96,6.58,20.58,10.89
		c20.56,13.4,36.79,32.93,51.86,52.55c11.58,15.07,22.76,30.43,33.73,45.9c20.02,28.2,39.86,56.77,59.34,81.92
		c43.68,56.52,76.59,100.07,130.66,145.4c13.77,11.5,28.55,23.41,44.15,35.25c18.85,14.35,39.17,29.13,61.71,35.68
		c54.82,15.93,106.3-25.64,139.75-66.9c30.54-37.72,55.14-78.63,77.28-121.03c43.55-83.29,73.33-175.06,127.39-252.49
		c16.26-23.29,37.14-43.8,62.82-63.51c11.45-8.85,24.22-17.52,38.04-25.91c16.96-10.3,35.65-20.19,54.31-29.65
		c15-7.58,29.74-14.47,44.7-19.45c15.62-5.19,31.54-8.39,47.41-9.17c34.82-1.63,65.79,7.5,93.27,22.56
		c36.07,19.77,66.22,49.63,93.03,81.21c26.7,31.4,53.42,66.26,78.23,107.5c56.29,104.76,106.6,212.19,173.17,310.96
		c12.07,17.9,27.03,36.5,44.19,47.57c10.75,6.94,21.93,11.17,34.03,12.22c5.34,0.46,10.87,0.3,16.6-0.6
		c21.38-3.43,40.69-17.41,56.93-33.07c67.33-64.89,106.19-167.38,189.89-200.51"/>
	<path class="st9" d="M-71.08,657.58c1.57-48.73,13.38-99.46,50.57-132.32c34.36-30.42,82.64-37.87,130.45-36.33
		c18.58,0.65,37.05,2.6,54.81,4.91c26.63,3.39,53.97,7.28,78.94,18.2c7.03,3.07,13.87,6.7,20.44,11.04
		c20.45,13.52,36.66,33.04,51.78,52.62c11.61,15.04,22.85,30.35,33.9,45.74c20.17,28.06,40.3,56.4,60.04,80.9
		c44.25,55.05,76.45,95.48,130.82,139.33c13.85,11.13,28.72,22.8,44.39,34.51c18.92,14.19,39.23,29.02,61.66,35.71
		c54.02,16.11,104.78-24.45,137.77-64.54c30.11-36.65,54.36-76.41,76.19-117.63c42.95-80.98,71.7-170.81,125.64-245.51
		c16.03-22.2,36.95-41.29,62.76-60.02c11.5-8.42,24.39-16.74,38.32-24.87c17.11-10,35.94-19.76,54.62-29.35
		c15.01-7.68,29.63-14.8,44.47-20.03c15.49-5.45,31.27-8.94,47-10.07c34.52-2.37,65.25,5.82,92.56,19.81
		c35.86,18.37,65.93,46.6,93.03,76.78c27.01,30,54.42,63.7,79.86,104.48c57.4,104.46,109.01,211.47,176.63,309.89
		c12.26,17.84,27.44,36.36,44.75,47.08c10.83,6.71,22.01,10.64,34.08,11.45c5.33,0.35,10.84,0.09,16.55-0.89
		c21.3-3.74,40.58-17.85,56.83-33.6c67.37-65.29,106.7-167.57,189.87-201.88"/>
	<path class="st10" d="M-71.14,648.17c2.39-48.33,15-98.28,52.47-130.39c34.61-29.73,82.84-36.66,130.41-34.52
		c18.49,0.89,36.85,3.08,54.48,5.65c26.44,3.76,53.54,8.04,78.33,19.2c6.98,3.13,13.77,6.82,20.31,11.2
		c20.34,13.64,36.53,33.15,51.69,52.69c11.64,15.01,22.93,30.27,34.06,45.57c20.31,27.92,40.73,56.03,60.74,79.87
		c44.82,53.58,76.32,90.9,130.98,133.27c13.93,10.75,28.9,22.18,44.63,33.77c18.99,14.03,39.3,28.91,61.62,35.74
		c53.21,16.28,103.26-23.27,135.78-62.18c29.68-35.58,53.58-74.19,75.11-114.24c42.35-78.67,70.06-166.59,123.9-238.53
		c15.81-21.12,36.8-38.72,62.69-56.53c11.57-7.96,24.55-15.95,38.59-23.83c17.26-9.7,36.24-19.33,54.93-29.05
		c15.01-7.79,29.52-15.13,44.23-20.61c15.35-5.71,31-9.5,46.59-10.97c34.21-3.11,64.7,4.14,91.85,17.07
		c35.65,16.97,65.63,43.56,93.04,72.34c27.31,28.6,55.42,61.13,81.48,101.47c58.52,104.17,111.42,210.74,180.08,308.81
		c12.46,17.78,27.85,36.22,45.31,46.59c10.92,6.48,22.1,10.11,34.13,10.68c5.31,0.25,10.81-0.11,16.49-1.17
		c21.23-4.06,40.47-18.29,56.73-34.14c67.42-65.69,107.2-167.76,189.85-203.25"/>
	<path class="st11" d="M-71.2,638.76c3.21-47.93,16.62-97.1,54.37-128.46c34.86-29.04,83.05-35.44,130.36-32.71
		c18.4,1.13,36.64,3.57,54.15,6.38c26.24,4.13,53.1,8.79,77.72,20.19c6.93,3.2,13.68,6.94,20.18,11.36
		c20.22,13.76,36.41,33.26,51.6,52.76c11.67,14.98,23.02,30.18,34.23,45.41c20.46,27.77,41.17,55.66,61.43,78.84
		c45.39,52.11,76.19,86.31,131.14,127.21c14.01,10.37,29.07,21.57,44.87,33.03c19.06,13.87,39.36,28.8,61.58,35.77
		c52.41,16.45,101.75-22.08,133.79-59.82c29.25-34.5,52.8-71.96,74.02-110.85c41.75-76.36,68.41-162.41,122.16-231.54
		c15.59-20.05,36.61-36.2,62.63-53.04c11.62-7.52,24.71-15.16,38.86-22.79c17.41-9.39,36.54-18.89,55.24-28.75
		c15.01-7.89,29.41-15.46,43.99-21.19c15.22-5.97,30.73-10.06,46.18-11.87c33.9-3.86,64.16,2.47,91.14,14.32
		c35.43,15.57,65.34,40.53,93.05,67.9c27.61,27.2,56.42,58.57,83.1,98.45c59.64,103.87,113.83,210.02,183.54,307.73
		c12.65,17.71,28.26,36.08,45.86,46.1c11,6.26,22.18,9.58,34.18,9.91c5.3,0.14,10.78-0.3,16.44-1.46
		c21.17-4.33,40.36-18.73,56.63-34.67c67.46-66.09,107.7-167.96,189.82-204.63"/>
	<path class="st12" d="M-71.25,629.35c4.02-47.53,18.25-95.92,56.28-126.53c35.11-28.34,83.25-34.23,130.32-30.89
		c18.31,1.37,36.43,4.05,53.81,7.11c26.05,4.5,52.67,9.55,77.1,21.19c6.87,3.26,13.58,7.06,20.05,11.51
		c20.11,13.89,36.28,33.37,51.51,52.83c11.7,14.95,23.1,30.1,34.39,45.25c20.61,27.63,41.61,55.29,62.13,77.82
		c45.96,50.63,76.05,81.73,131.3,121.15c14.09,9.99,29.25,20.96,45.11,32.28c19.13,13.71,39.43,28.69,61.54,35.8
		c51.61,16.61,100.23-20.9,131.8-57.46c28.82-33.43,52.02-69.74,72.93-107.45c41.15-74.05,66.75-158.27,120.41-224.56
		c15.38-18.99,36.43-33.69,62.56-49.55c11.67-7.08,24.88-14.37,39.14-21.75c17.56-9.09,36.83-18.46,55.55-28.46
		c15.02-7.99,29.3-15.79,43.76-21.77c15.09-6.23,30.46-10.61,45.78-12.77c33.6-4.6,63.62,0.79,90.43,11.58
		c35.22,14.18,65.05,37.49,93.05,63.47c27.91,25.81,57.42,56,84.72,95.43c60.75,103.57,116.24,209.29,186.99,306.65
		c12.84,17.65,28.67,35.94,46.42,45.61c11.08,6.03,22.26,9.05,34.23,9.13c5.29,0.03,10.75-0.5,16.39-1.74
		c21.1-4.64,40.24-19.16,56.53-35.21c67.51-66.49,108.21-168.15,189.8-206"/>
	<path class="st13" d="M-71.31,619.94c4.84-47.13,19.87-94.75,58.18-124.6c35.37-27.65,83.46-33.11,130.28-29.08
		c18.23,1.57,36.22,4.53,53.48,7.85c25.86,4.87,52.23,10.31,76.49,22.18c6.82,3.33,13.49,7.17,19.91,11.67
		c19.99,14.01,36.16,33.49,51.43,52.91c11.73,14.92,23.19,30.02,34.56,45.08c20.75,27.49,42.04,54.92,62.82,76.79
		c46.54,49.16,75.92,77.14,131.46,115.09c14.17,9.62,29.43,20.35,45.35,31.54c19.21,13.55,39.49,28.57,61.5,35.83
		c50.8,16.77,98.71-19.71,129.82-55.09c28.39-32.36,51.24-67.52,71.85-104.06c40.54-71.74,65.09-154.18,118.67-217.58
		c15.17-17.95,36.24-31.17,62.5-46.06c11.72-6.65,25.04-13.58,39.41-20.71c17.72-8.79,37.13-18.02,55.86-28.16
		c15.02-8.1,29.19-16.11,43.52-22.35c14.96-6.49,30.19-11.17,45.37-13.67c33.29-5.34,63.08-0.89,89.73,8.84
		c35.01,12.78,64.76,34.46,93.06,59.03c28.21,24.41,58.42,53.44,86.35,92.41c61.87,103.28,118.65,208.57,190.45,305.58
		c13.03,17.59,29.07,35.8,46.98,45.12c11.16,5.8,22.34,8.52,34.28,8.36c5.27-0.07,10.72-0.7,16.34-2.02
		c21.03-4.95,40.13-19.6,56.43-35.74c67.56-66.89,108.71-168.34,189.78-207.37"/>
	<path class="st14" d="M-71.37,610.54c5.66-46.73,21.5-93.57,60.09-122.67c35.62-26.95,83.66-31.9,130.23-27.27
		c18.14,1.8,36,5.05,53.15,8.58c25.66,5.29,51.8,11.07,75.88,23.17c6.77,3.39,13.39,7.29,19.78,11.83
		c19.88,14.13,36.03,33.6,51.34,52.98c11.77,14.89,23.28,29.93,34.72,44.92c20.9,27.34,42.48,54.55,63.52,75.76
		c47.11,47.69,75.79,72.56,131.62,109.02c14.24,9.24,29.6,19.73,45.59,30.8c19.28,13.39,39.55,28.45,61.46,35.87
		c50,16.92,97.19-18.53,127.83-52.73c27.96-31.29,50.46-65.3,70.76-100.67c39.94-69.43,63.42-150.14,116.93-210.59
		c14.98-16.93,36.05-28.65,62.43-42.57c11.78-6.21,25.21-12.79,39.68-19.67c17.87-8.49,37.43-17.59,56.17-27.86
		c15.03-8.2,29.09-16.44,43.29-22.93c14.82-6.75,29.91-11.76,44.96-14.57c32.97-6.15,62.54-2.57,89.02,6.09
		c34.8,11.38,64.46,31.42,93.06,54.59c28.51,23.01,59.41,50.87,87.97,89.39c62.99,102.98,121.06,207.85,193.9,304.5
		c13.22,17.53,29.48,35.66,47.54,44.63c11.24,5.58,22.42,7.99,34.33,7.59c5.26-0.18,10.69-0.9,16.28-2.31
		c20.96-5.27,40.02-20.04,56.33-36.27c67.6-67.29,109.21-168.53,189.75-208.74"/>
	<path class="st15" d="M-71.43,601.13c6.48-46.33,23.12-92.39,61.99-120.74c35.87-26.26,83.87-30.69,130.19-25.46
		c18.05,2.04,35.79,5.53,52.81,9.31c25.46,5.66,51.36,11.83,75.27,24.17c6.72,3.46,13.29,7.41,19.65,11.98
		c19.76,14.25,35.9,33.71,51.25,53.05c11.8,14.86,23.36,29.85,34.89,44.76c21.05,27.2,42.92,54.18,64.22,74.74
		c47.68,46.21,75.65,67.97,131.78,102.96c14.32,8.86,29.78,19.12,45.84,30.06c19.35,13.23,39.61,28.34,61.42,35.9
		c49.2,17.06,95.67-17.35,125.84-50.37c27.53-30.22,49.68-63.08,69.67-97.27c39.34-67.11,61.75-146.14,115.18-203.61
		c14.8-15.92,35.86-26.13,62.37-39.08c11.83-5.78,25.37-12,39.96-18.63c18.02-8.18,37.72-17.16,56.48-27.56
		c15.03-8.3,28.98-16.77,43.05-23.51c14.69-7.01,29.64-12.32,44.55-15.47c32.66-6.9,62-4.25,88.31,3.35
		c34.59,9.98,64.17,28.39,93.07,50.15c28.81,21.61,60.41,48.3,89.59,86.38c64.1,102.69,123.47,207.12,197.35,303.42
		c13.41,17.46,29.89,35.53,48.1,44.13c11.32,5.35,22.5,7.46,34.38,6.82c5.25-0.29,10.66-1.1,16.23-2.59
		c20.89-5.58,39.91-20.48,56.23-36.81c67.65-67.69,109.72-168.72,189.73-210.11"/>
	<path class="st16" d="M-71.49,591.72C-64.2,545.79-46.74,500.5-7.6,472.9c36.12-25.56,84.07-29.48,130.14-23.64
		c17.96,2.28,35.58,6.01,52.48,10.05c25.27,6.03,50.93,12.59,74.66,25.16c6.67,3.52,13.2,7.53,19.51,12.14
		c19.65,14.37,35.78,33.82,51.16,53.12c11.83,14.83,23.45,29.77,35.05,44.6c21.19,27.06,43.36,53.82,64.91,73.71
		c48.25,44.74,75.52,63.39,131.94,96.9c14.4,8.48,29.95,18.51,46.08,29.32c19.42,13.07,39.67,28.22,61.38,35.93
		c48.4,17.2,94.15-16.16,123.85-48.01c27.1-29.14,48.9-60.86,68.58-93.88c38.74-64.8,60.08-142.21,113.44-196.63
		c14.64-14.93,35.67-23.62,62.3-35.59c11.88-5.34,25.53-11.21,40.23-17.59c18.17-7.88,38.02-16.72,56.79-27.26
		c15.03-8.4,28.87-17.1,42.82-24.08c14.56-7.27,29.37-12.88,44.14-16.37c32.35-7.64,61.46-5.92,87.6,0.6
		c34.38,8.58,63.88,25.35,93.08,45.72c29.11,20.21,61.41,45.74,91.21,83.36c65.22,102.39,125.89,206.4,200.81,302.35
		c13.6,17.4,30.29,35.39,48.66,43.64c11.4,5.12,22.58,6.93,34.43,6.05c5.23-0.39,10.63-1.31,16.18-2.88
		c20.82-5.89,39.8-20.91,56.13-37.34c67.69-68.09,110.22-168.91,189.71-211.49"/>
	<path class="st17" d="M-71.55,582.31c8.11-45.53,26.37-90.04,65.8-116.89c36.37-24.87,84.28-28.27,130.1-21.83
		c17.88,2.51,35.37,6.5,52.15,10.78c25.07,6.4,50.49,13.35,74.04,26.16c6.62,3.59,13.1,7.65,19.38,12.3
		c19.53,14.49,35.65,33.93,51.08,53.19c11.86,14.8,23.53,29.68,35.22,44.43c21.34,26.91,43.79,53.45,65.61,72.68
		c48.82,43.27,75.39,58.8,132.1,90.84c14.48,8.11,30.13,17.89,46.32,28.57c19.49,12.92,39.73,28.1,61.34,35.96
		c47.6,17.33,92.63-14.98,121.86-45.64c26.67-28.07,48.12-58.63,67.5-90.49c38.14-62.49,68.47-129.63,111.7-189.64
		c16.76-11.14,35.48-21.1,62.24-32.1c11.93-4.9,25.7-10.42,40.51-16.55c18.32-7.58,38.31-16.29,57.11-26.96
		c15.04-8.51,28.76-17.43,42.58-24.66c14.43-7.53,29.09-13.43,43.74-17.27c32.04-8.39,60.92-7.6,86.89-2.14
		c34.18,7.19,63.59,22.32,93.08,41.28c29.41,18.81,62.41,43.17,92.84,80.34c66.34,102.1,128.3,205.67,204.26,301.27
		c13.79,17.34,30.7,35.25,49.22,43.15c11.48,4.9,22.67,6.41,34.48,5.28c5.22-0.5,10.6-1.51,16.13-3.16
		c20.75-6.21,39.69-21.35,56.03-37.87c67.74-68.49,110.73-169.1,189.68-212.86"/>
	<path class="st18" d="M-71.61,572.9c8.93-45.13,28-88.86,67.7-114.96c36.62-24.17,84.48-27.06,130.06-20.02
		c17.79,2.75,35.16,6.98,51.81,11.51c24.88,6.77,50.05,14.1,73.43,27.15c6.57,3.66,13.01,7.77,19.25,12.45
		c19.42,14.61,35.52,34.04,50.99,53.26c11.89,14.77,23.62,29.6,35.39,44.27c21.49,26.77,44.23,53.08,66.31,71.65
		c49.39,41.8,75.25,54.22,132.26,84.78c14.56,7.73,30.31,17.28,46.56,27.83c19.56,12.76,39.79,27.97,61.3,35.99
		c46.8,17.45,91.11-13.79,119.88-43.28c26.24-27,47.34-56.41,66.41-87.09c37.54-60.18,67.45-124.9,109.95-182.66
		c16.67-9.9,35.29-18.58,62.17-28.61c11.98-4.47,25.86-9.63,40.78-15.51c18.47-7.27,38.61-15.86,57.42-26.67
		c15.04-8.61,28.65-17.76,42.35-25.24c14.29-7.79,28.82-13.99,43.33-18.17c31.73-9.13,60.39-9.28,86.18-4.89
		c33.97,5.79,63.29,19.28,93.09,36.84c29.71,17.42,63.41,40.61,94.46,77.32c67.45,101.8,130.71,204.95,207.72,300.19
		c13.98,17.28,31.1,35.11,49.78,42.66c11.56,4.67,22.75,5.88,34.53,4.51c5.21-0.61,10.57-1.71,16.07-3.44
		c20.68-6.52,39.58-21.79,55.93-38.41c67.78-68.89,111.23-169.29,189.66-214.23"/>
	<path class="st19" d="M-71.67,563.49c9.75-44.73,29.62-87.68,69.61-113.03c36.88-23.48,84.69-25.85,130.01-18.21
		c17.7,2.99,34.95,7.46,51.48,12.25c24.68,7.14,49.62,14.86,72.82,28.15c6.52,3.72,12.91,7.88,19.11,12.61
		c19.3,14.73,35.4,34.16,50.9,53.33c11.92,14.74,23.71,29.52,35.55,44.11c21.63,26.63,44.67,52.71,67,70.63
		c49.96,40.32,75.06,49.75,132.42,78.71c14.62,7.38,30.48,16.67,46.8,27.09c19.63,12.6,39.85,27.85,61.25,36.02
		c46,17.57,89.59-12.61,117.89-40.92c25.81-25.93,46.56-54.19,65.32-83.7c36.93-57.87,66.42-120.17,108.21-175.68
		c16.59-8.65,35.1-16.07,62.11-25.12c12.03-4.03,26.03-8.84,41.05-14.47c18.63-6.97,38.91-15.42,57.73-26.37
		c15.05-8.71,28.54-18.09,42.11-25.82c14.16-8.05,28.55-14.55,42.92-19.07c31.42-9.88,59.85-10.96,85.47-7.63
		c33.77,4.39,63,16.25,93.09,32.41c30.01,16.02,64.41,38.04,96.08,74.3c68.57,101.51,133.12,204.22,211.17,299.11
		c14.17,17.21,31.51,34.98,50.33,42.17c11.64,4.45,22.83,5.35,34.58,3.74c5.19-0.71,10.54-1.91,16.02-3.73
		c20.61-6.83,39.47-22.22,55.83-38.94c67.83-69.29,111.73-169.48,189.64-215.6"/>
	<path class="st20" d="M-71.73,554.08c10.57-44.33,31.24-86.5,71.51-111.1c37.13-22.78,84.89-24.64,129.97-16.39
		c17.61,3.22,34.74,7.95,51.15,12.98c24.49,7.51,49.18,15.62,72.21,29.14c6.47,3.79,12.82,8,18.98,12.77
		c19.19,14.85,35.27,34.27,50.81,53.4c11.95,14.71,23.79,29.43,35.72,43.94c21.78,26.48,45.1,52.34,67.7,69.6
		c50.54,38.85,74.93,45.17,132.58,72.65c14.7,7.01,30.66,16.06,47.04,26.35c19.7,12.44,39.91,27.72,61.21,36.05
		c45.2,17.68,88.07-11.42,115.9-38.56c25.38-24.86,45.78-51.97,64.24-80.31c36.33-55.56,65.4-115.44,106.47-168.69
		c16.5-7.41,34.91-13.55,62.04-21.63c12.08-3.6,26.19-8.05,41.33-13.42c18.78-6.66,39.2-14.99,58.04-26.07
		c15.05-8.81,28.43-18.41,41.87-26.4c14.03-8.31,28.28-15.11,42.51-19.97c31.11-10.62,59.31-12.64,84.77-10.37
		c33.56,2.99,62.71,13.21,93.1,27.97c30.31,14.62,65.41,35.48,97.7,71.28c69.69,101.21,135.53,203.5,214.63,298.04
		c14.36,17.15,31.91,34.84,50.89,41.68c11.72,4.22,22.91,4.82,34.63,2.97c5.18-0.82,10.51-2.11,15.97-4.01
		c20.54-7.15,39.36-22.66,55.73-39.48c67.87-69.69,112.24-169.67,189.61-216.97"/>
	<path class="st21" d="M-71.79,544.67c11.38-43.93,32.87-85.33,73.41-109.17c37.38-22.09,85.1-23.43,129.93-14.58
		c17.53,3.46,34.53,8.43,50.81,13.71c24.29,7.88,48.75,16.38,71.6,30.13c6.42,3.85,12.72,8.12,18.85,12.92
		c19.07,14.98,35.15,34.38,50.73,53.48c11.98,14.68,23.88,29.35,35.88,43.78c21.93,26.34,45.54,51.97,68.39,68.57
		c51.11,37.38,74.8,40.59,132.74,66.59c14.78,6.63,30.83,15.44,47.29,25.61c19.77,12.28,39.97,27.59,61.17,36.08
		c44.4,17.78,86.55-10.24,113.91-36.2c24.95-23.79,45-49.75,63.15-76.91c35.73-53.25,64.37-110.71,104.72-161.71
		c16.42-6.16,34.71-11.03,61.98-18.14c12.13-3.16,26.36-7.26,41.6-12.38c18.93-6.36,39.5-14.55,58.35-25.77
		c15.06-8.92,28.32-18.74,41.64-26.98c13.89-8.57,28-15.67,42.1-20.87c30.8-11.36,58.78-14.32,84.06-13.12
		c33.36,1.59,62.42,10.18,93.11,23.53c30.61,13.22,66.41,32.91,99.33,68.27c70.81,100.91,137.94,202.78,218.08,296.96
		c14.56,17.09,32.32,34.7,51.45,41.19c11.8,4,22.99,4.29,34.68,2.2c5.17-0.93,10.48-2.31,15.92-4.3
		c20.47-7.46,39.24-23.1,55.63-40.01c67.92-70.09,112.74-169.86,189.59-218.35"/>
	<path class="st22" d="M-71.84,535.26c12.2-43.53,34.49-84.15,75.32-107.24c37.63-21.39,85.3-22.22,129.88-12.77
		c17.44,3.7,34.32,8.91,50.48,14.44c24.1,8.25,48.31,17.14,70.98,31.13c6.37,3.92,12.63,8.24,18.71,13.08
		c18.96,15.1,35.02,34.49,50.64,53.55c12.01,14.65,23.96,29.27,36.05,43.62c22.07,26.2,45.98,51.6,69.09,67.55
		c51.68,35.9,74.67,36.01,132.9,60.53c14.86,6.25,31.01,14.83,47.53,24.86c19.84,12.12,40.03,27.46,61.13,36.12
		c43.6,17.88,85.03-9.06,111.93-33.83c24.52-22.71,44.22-47.53,62.06-73.52c35.13-50.93,63.34-105.99,102.98-154.72
		c16.33-4.91,34.52-8.52,61.91-14.65c12.18-2.72,26.52-6.47,41.87-11.34c19.09-6.05,39.8-14.12,58.66-25.47
		c15.06-9.02,28.21-19.07,41.4-27.56c13.76-8.83,27.73-16.22,41.7-21.77c30.5-12.11,58.24-15.68,83.35-15.86
		c33.16-0.25,62.12,7.14,93.11,19.1c30.91,11.82,67.41,30.34,100.95,65.25c71.92,100.62,140.35,202.05,221.53,295.88
		c14.75,17.02,32.72,34.57,52.01,40.7c11.88,3.77,23.07,3.76,34.74,1.43c5.15-1.04,10.45-2.52,15.86-4.58
		c20.4-7.78,39.13-23.54,55.53-40.54c67.97-70.49,113.24-170.06,189.57-219.72"/>
	<path class="st23" d="M-71.9,525.85c13.02-43.13,36.12-82.97,77.22-105.31c37.88-20.7,85.51-21.01,129.84-10.96
		c17.35,3.93,34.11,9.39,50.15,15.18c23.9,8.62,47.88,17.9,70.37,32.12c6.32,3.98,12.53,8.36,18.58,13.24
		c18.84,15.22,34.89,34.6,50.55,53.62c12.04,14.62,24.05,29.18,36.21,43.46c22.22,26.05,46.41,51.23,69.79,66.52
		c52.25,34.43,74.53,31.43,133.06,54.47c14.94,5.88,31.18,14.22,47.77,24.12c19.91,11.96,40.09,27.33,61.09,36.15
		c42.81,17.97,83.52-7.87,109.94-31.47c24.1-21.64,43.44-45.31,60.98-70.13c34.53-48.62,62.32-101.26,101.24-147.74
		c16.24-3.67,34.33-6,61.85-11.15c12.23-2.29,26.69-5.68,42.15-10.3c19.24-5.75,40.09-13.69,58.97-25.17
		c15.06-9.12,28.1-19.4,41.17-28.14c13.63-9.09,27.46-16.78,41.29-22.67c30.19-12.85,57.71-17.68,82.64-18.61
		c32.96-1.22,61.83,4.11,93.12,14.66c31.21,10.42,68.41,27.78,102.57,62.23c73.04,100.32,142.76,201.33,224.99,294.81
		c14.94,16.96,33.13,34.43,52.57,40.21c11.95,3.55,23.15,3.23,34.79,0.66c5.14-1.14,10.42-2.72,15.81-4.87
		c20.33-8.09,39.02-23.97,55.43-41.08c68.01-70.88,113.75-170.25,189.54-221.09"/>
	<path class="st24" d="M-71.96,516.44c13.84-42.73,37.74-81.79,79.13-103.38c38.13-20.01,85.72-19.79,129.8-9.14
		c17.26,4.17,33.9,9.88,49.81,15.91c23.71,8.99,47.44,18.66,69.76,33.12c6.27,4.05,12.44,8.48,18.45,13.39
		c18.73,15.34,34.77,34.72,50.46,53.69c12.07,14.59,24.14,29.1,36.38,43.29c22.37,25.91,46.85,50.86,70.48,65.49
		c52.82,32.96,74.4,26.85,133.22,48.4c15.02,5.5,31.36,13.6,48.01,23.38c19.99,11.8,40.15,27.19,61.05,36.18
		c42.01,18.06,82-6.69,107.95-29.11c23.67-20.57,42.66-43.08,59.89-66.73c33.93-46.31,61.29-96.53,99.49-140.76
		c16.16-2.42,34.13-3.49,61.78-7.66c12.28-1.85,26.86-4.89,42.42-9.26c19.39-5.44,40.39-13.25,59.28-24.87
		c15.07-9.23,27.99-19.73,40.93-28.71c13.5-9.34,27.19-17.34,40.88-23.57c29.88-13.59,57.18-19.37,81.93-21.35
		c32.75-2.63,61.54,1.07,93.13,10.22c31.51,9.02,69.41,25.21,104.19,59.21c74.16,100.03,145.17,200.6,228.44,293.73
		c15.13,16.9,33.53,34.3,53.13,39.71c12.03,3.32,23.24,2.7,34.84-0.11c5.13-1.25,10.39-2.92,15.76-5.15
		c20.26-8.4,38.91-24.41,55.33-41.61c68.06-71.28,114.25-170.44,189.52-222.46"/>
	<path class="st25" d="M-72.02,507.04c14.65-42.33,39.37-80.61,81.03-101.45c38.39-19.31,85.92-18.58,129.75-7.33
		c17.18,4.41,33.69,10.36,49.48,16.64c23.52,9.36,47.01,19.41,69.15,34.11c6.22,4.11,12.34,8.6,18.32,13.55
		c18.61,15.46,34.64,34.83,50.37,53.76c12.1,14.56,24.22,29.02,36.54,43.13c22.52,25.77,47.29,50.49,71.18,64.47
		c53.39,31.49,74.27,22.27,133.38,42.34c15.1,5.13,31.54,12.99,48.25,22.64c20.06,11.64,40.2,27.06,61.01,36.21
		c41.22,18.13,80.48-5.5,105.96-26.75c23.24-19.5,41.88-40.86,58.8-63.34c33.33-44,60.27-91.8,97.75-133.77
		c16.07-1.18,33.94-0.97,61.72-4.17c12.32-1.42,27.02-4.1,42.7-8.22c19.55-5.14,40.68-12.82,59.59-24.58
		c15.07-9.33,27.88-20.06,40.7-29.29c13.36-9.6,26.92-17.9,40.47-24.47c29.57-14.33,56.64-21.05,81.22-24.1
		c32.55-4.03,61.25-1.96,93.13,5.78c31.82,7.63,70.41,22.65,105.82,56.19c75.27,99.73,147.58,199.88,231.9,292.65
		c15.32,16.84,33.93,34.17,53.69,39.22c12.11,3.1,23.32,2.17,34.89-0.88c5.11-1.36,10.36-3.12,15.71-5.43
		c20.19-8.72,38.8-24.85,55.23-42.14c68.1-71.68,114.75-170.63,189.5-223.83"/>
	<path class="st26" d="M-72.08,497.63c15.47-41.92,40.99-79.44,82.93-99.52c38.64-18.62,86.13-17.37,129.71-5.52
		c17.09,4.65,33.48,10.84,49.15,17.38c23.32,9.73,46.57,20.17,68.53,35.1c6.17,4.18,12.24,8.71,18.18,13.71
		c18.5,15.58,34.51,34.94,50.29,53.83c12.13,14.53,24.31,28.93,36.71,42.97c22.66,25.63,47.72,50.12,71.88,63.44
		c53.96,30.01,74.14,17.69,133.55,36.28c15.17,4.75,31.71,12.38,48.49,21.9c20.13,11.48,40.26,26.92,60.97,36.24
		c40.43,18.2,78.96-4.32,103.98-24.39c22.81-18.43,41.1-38.64,57.72-59.95c32.72-41.69,59.24-87.07,96.01-126.79
		c15.99,0.07,33.75,1.54,61.65-0.68c12.37-0.99,27.19-3.31,42.97-7.18c19.7-4.83,40.98-12.39,59.9-24.28
		c15.08-9.43,27.77-20.39,40.46-29.87c13.23-9.86,26.64-18.45,40.06-25.37c29.26-15.08,56.11-22.74,80.51-26.84
		c32.35-5.44,60.95-5,93.14,1.35c32.12,6.23,71.41,20.08,107.44,53.17c76.39,99.44,149.99,199.15,235.35,291.58
		c15.51,16.77,34.34,34.03,54.24,38.73c12.19,2.88,23.4,1.64,34.94-1.65c5.1-1.46,10.33-3.33,15.65-5.72
		c20.12-9.03,38.69-25.29,55.13-42.68c68.15-72.08,115.26-170.82,189.47-225.21"/>
	<path class="st27" d="M-72.14,488.22c16.29-41.52,42.62-78.26,84.84-97.6c38.89-17.92,86.33-16.15,129.67-3.71
		c17,4.88,33.27,11.32,48.81,18.11c23.13,10.09,46.13,20.93,67.92,36.1c6.12,4.24,12.15,8.83,18.05,13.86
		c18.38,15.7,34.39,35.05,50.2,53.9c12.16,14.5,24.39,28.85,36.87,42.8c22.81,25.48,48.16,49.75,72.57,62.41
		c54.54,28.54,74.01,13.11,133.71,30.22c15.25,4.37,31.89,11.77,48.73,21.15c20.2,11.32,40.32,26.77,60.93,36.27
		c39.64,18.27,77.44-3.13,101.99-22.02c22.38-17.35,40.32-36.42,56.63-56.55c32.12-39.38,58.21-82.34,94.27-119.81
		c15.9,1.32,33.55,4.05,61.58,2.81c12.42-0.55,27.35-2.52,43.24-6.14c19.85-4.53,41.28-11.95,60.21-23.98
		c15.08-9.53,27.66-20.71,40.23-30.45c13.1-10.12,26.37-19.01,39.65-26.27c28.95-15.82,55.58-24.42,79.81-29.58
		c32.15-6.85,60.66-8.03,93.14-3.09c32.42,4.83,72.41,17.52,109.06,50.16c77.51,99.14,152.4,198.43,238.8,290.5
		c15.7,16.71,34.74,33.9,54.8,38.24c12.27,2.65,23.48,1.12,34.99-2.42c5.09-1.57,10.29-3.53,15.6-6
		c20.05-9.35,38.58-25.72,55.03-43.21c68.19-72.48,115.76-171.01,189.45-226.58"/>
	<path class="st28" d="M-72.2,478.81c17.11-41.12,44.24-77.08,86.74-95.67c39.14-17.23,86.54-14.94,129.62-1.89
		c16.92,5.12,33.06,11.81,48.48,18.84c22.93,10.46,45.7,21.69,67.31,37.09c6.07,4.31,12.05,8.95,17.92,14.02
		c18.27,15.82,34.26,35.16,50.11,53.97c12.2,14.47,24.48,28.77,37.04,42.64c22.96,25.34,48.6,49.38,73.27,61.39
		c55.11,27.07,73.88,8.52,133.87,24.16c15.33,4,32.06,11.15,48.98,20.41c20.27,11.17,40.38,26.63,60.89,36.3
		c38.85,18.33,75.96-1.9,100-19.66c21.98-16.24,39.54-34.2,55.54-53.16c31.52-37.07,57.19-77.62,92.52-112.82
		c15.82,2.56,33.36,6.56,61.52,6.3c12.47-0.12,27.52-1.72,43.52-5.1c20.01-4.22,41.57-11.52,60.52-23.68
		c15.08-9.64,27.55-21.04,39.99-31.03c12.97-10.38,26.1-19.57,39.25-27.17c28.64-16.56,55.04-26.11,79.1-32.33
		c31.95-8.26,60.37-11.07,93.15-7.53c32.72,3.43,73.41,14.95,110.68,47.14c78.62,98.85,154.81,197.7,242.26,289.42
		c15.89,16.65,35.14,33.77,55.36,37.75c12.34,2.43,23.56,0.59,35.04-3.19c5.07-1.68,10.26-3.73,15.55-6.29
		c19.98-9.66,38.47-26.16,54.93-43.75c68.24-72.88,116.27-171.2,189.43-227.95"/>
	<path class="st29" d="M-72.26,469.4c17.92-40.72,45.86-75.9,88.65-93.74c39.39-16.53,86.74-13.73,129.58-0.08
		c16.83,5.36,32.84,12.29,48.15,19.58c22.74,10.83,45.26,22.45,66.7,38.09c6.02,4.37,11.96,9.07,17.78,14.18
		c18.15,15.94,34.14,35.27,50.02,54.04c12.23,14.44,24.57,28.68,37.2,42.48c23.1,25.2,49.03,49.01,73.96,60.36
		c55.68,25.59,73.75,3.94,134.03,18.09c15.41,3.62,32.24,10.54,49.22,19.67c20.34,11.01,40.44,26.48,60.84,36.33
		c38.06,18.38,74.44-0.71,98.01-17.3c21.55-15.16,38.72-32.01,54.45-49.77c30.85-34.82,56.16-72.89,90.78-105.84
		c15.73,3.81,33.16,9.07,61.45,9.79c12.52,0.32,27.68-0.93,43.79-4.06c20.16-3.91,41.87-11.08,60.84-23.38
		c15.09-9.74,27.44-21.37,39.75-31.61c12.83-10.64,25.83-20.12,38.84-28.07c28.33-17.3,54.51-27.8,78.39-35.07
		c31.75-9.67,60.08-14.1,93.16-11.96c33.02,2.03,74.41,12.38,112.31,44.12c79.74,98.55,157.22,196.98,245.71,288.34
		c16.08,16.58,35.55,33.63,55.92,37.26c12.42,2.21,23.64,0.06,35.09-3.96c5.06-1.78,10.23-3.93,15.5-6.57
		c19.91-9.98,38.36-26.6,54.83-44.28c68.29-73.28,116.77-171.39,189.4-229.32"/>
	<path class="st30" d="M-72.32,459.99c18.74-40.32,47.49-74.73,90.55-91.81c39.64-15.84,86.95-12.51,129.54,1.73
		c16.74,5.6,32.63,12.77,47.82,20.31c22.54,11.2,44.83,23.21,66.09,39.08c5.97,4.44,11.86,9.19,17.65,14.33
		c18.04,16.07,34.01,35.39,49.94,54.12c12.26,14.41,24.65,28.6,37.37,42.32c23.25,25.05,49.47,48.64,74.66,59.33
		c56.25,24.12,73.62-0.64,134.19,12.03c15.49,3.24,32.41,9.93,49.46,18.93c20.41,10.85,40.5,26.33,60.8,36.37
		c37.28,18.42,72.92,0.47,96.02-14.94c21.12-14.09,37.94-29.79,53.37-46.37c30.24-32.51,55.14-68.16,89.04-98.86
		c15.65,5.05,32.97,11.58,61.39,13.28c12.57,0.75,27.85-0.14,44.06-3.02c20.31-3.6,42.17-10.65,61.15-23.08
		c15.09-9.84,27.34-21.7,39.52-32.19c12.7-10.9,25.56-20.68,38.43-28.97c28.02-18.04,53.97-29.49,77.68-37.82
		c31.55-11.08,59.78-17.14,93.16-16.4c33.32,0.63,75.41,9.82,113.93,41.1c80.86,98.25,159.63,196.26,249.17,287.27
		c16.27,16.52,35.95,33.5,56.48,36.77c12.5,1.99,23.72-0.47,35.14-4.73c5.05-1.89,10.2-4.13,15.44-6.85
		c19.84-10.3,38.24-27.04,54.73-44.81c68.33-73.68,117.27-171.58,189.38-230.69"/>
	<path class="st31" d="M-72.37,450.58c19.56-39.92,49.11-73.55,92.45-89.88c39.9-15.14,87.15-11.3,129.49,3.54
		c16.65,5.84,32.42,13.25,47.48,21.04c22.35,11.57,44.39,23.97,65.47,40.07c5.92,4.5,11.77,9.31,17.52,14.49
		c17.92,16.19,33.88,35.5,49.85,54.19c12.29,14.38,24.74,28.52,37.53,42.15c23.4,24.91,49.91,48.27,75.36,58.31
		c56.82,22.65,73.49-5.23,134.35,5.97c15.57,2.86,32.59,9.31,49.7,18.18c20.48,10.69,40.56,26.18,60.76,36.4
		c36.5,18.46,71.4,1.66,94.04-12.58c20.69-13.01,37.16-27.57,52.28-42.98c29.64-30.21,54.11-63.43,87.29-91.87
		c15.56,6.3,32.78,14.09,61.32,16.77c12.62,1.18,28.02,0.65,44.34-1.98c20.47-3.3,42.46-10.22,61.46-22.79
		c15.1-9.94,27.23-22.03,39.28-32.77c12.57-11.16,25.29-21.23,38.02-29.87c27.71-18.78,53.44-31.18,76.97-40.56
		c31.34-12.5,59.49-20.17,93.17-20.84c33.62-0.77,76.4,7.25,115.55,38.08c81.97,97.96,162.04,195.53,252.62,286.19
		c16.46,16.46,36.35,33.37,57.04,36.28c12.58,1.77,23.81-1,35.19-5.5c5.03-2,10.17-4.34,15.39-7.14
		c19.77-10.61,38.13-27.47,54.63-45.35c68.38-74.08,117.78-171.77,189.36-232.07"/>
	<path class="st32" d="M-72.43,441.17c20.38-39.52,50.74-72.37,94.36-87.95c40.15-14.45,87.36-10.08,129.45,5.36
		c16.57,6.08,32.21,13.73,47.15,21.78c22.16,11.94,43.96,24.73,64.86,41.07c5.86,4.57,11.67,9.43,17.38,14.65
		c17.81,16.31,33.76,35.61,49.76,54.26c12.32,14.35,24.82,28.43,37.7,41.99c23.54,24.77,50.34,47.9,76.05,57.28
		c57.39,21.18,73.36-9.81,134.51-0.09c15.65,2.49,32.77,8.7,49.94,17.44c20.55,10.53,40.62,26.03,60.72,36.43
		c35.72,18.49,69.88,2.85,92.05-10.21c20.26-11.94,36.38-25.35,51.19-39.59c29.04-27.9,53.09-58.7,85.55-84.89
		c15.48,7.55,32.58,16.6,61.26,20.26c12.67,1.61,28.18,1.45,44.61-0.93c20.62-2.99,42.76-9.78,61.77-22.49
		c15.1-10.05,27.12-22.36,39.05-33.35c12.44-11.42,25.01-21.79,37.61-30.76c27.41-19.52,52.9-32.87,76.26-43.31
		c31.14-13.91,59.2-23.21,93.17-25.28c33.92-2.16,77.4,4.69,117.17,35.06c83.09,97.66,164.45,194.81,256.08,285.11
		c16.65,16.4,36.75,33.24,57.6,35.79c12.66,1.54,23.89-1.53,35.24-6.27c5.02-2.1,10.14-4.54,15.34-7.42
		c19.7-10.93,38.02-27.91,54.53-45.88c68.42-74.48,118.28-171.97,189.33-233.44"/>
	<path class="st33" d="M-72.49,431.76c21.19-39.12,52.36-71.19,96.26-86.02c40.4-13.75,87.56-8.86,129.4,7.17
		c16.48,6.31,32,14.21,46.82,22.51c21.96,12.3,43.52,25.48,64.25,42.06c5.81,4.63,11.58,9.54,17.25,14.8
		c17.69,16.43,33.63,35.72,49.67,54.33c12.35,14.32,24.91,28.35,37.86,41.83c23.69,24.62,50.78,47.53,76.75,56.25
		c57.96,19.7,73.23-14.4,134.67-6.15c15.73,2.11,32.94,8.09,50.18,16.7c20.62,10.37,40.69,25.87,60.68,36.46
		c34.94,18.51,68.36,4.04,90.06-7.85c19.83-10.86,35.6-23.13,50.11-36.19c28.43-25.6,52.06-53.97,83.81-77.91
		c15.39,8.79,32.39,19.11,61.19,23.75c12.72,2.05,28.35,2.24,44.89,0.11c20.78-2.68,43.05-9.35,62.08-22.19
		c15.11-10.15,27.01-22.69,38.81-33.92c12.3-11.68,24.74-22.35,37.21-31.66c27.1-20.26,52.37-34.56,75.55-46.05
		c30.93-15.33,58.91-26.24,93.18-29.71c34.22-3.56,78.4,2.12,118.8,32.05c84.21,97.37,166.86,194.08,259.53,284.04
		c16.85,16.33,37.16,33.11,58.16,35.29c12.73,1.32,23.97-2.06,35.29-7.04c5.01-2.21,10.11-4.74,15.29-7.71
		c19.63-11.24,37.91-28.35,54.43-46.41c68.47-74.88,118.78-172.16,189.31-234.81"/>
	<path class="st34" d="M-72.55,422.35c22.01-38.72,53.99-70.02,98.17-84.09c40.65-13.06,87.76-7.65,129.36,8.98
		c16.39,6.55,31.79,14.69,46.48,23.24c21.77,12.67,43.09,26.24,63.64,43.06c5.76,4.7,11.48,9.66,17.12,14.96
		c17.58,16.55,33.5,35.83,49.59,54.4c12.38,14.29,24.99,28.27,38.03,41.66c23.84,24.48,51.22,47.16,77.45,55.23
		c58.54,18.23,73.1-18.98,134.83-12.22c15.81,1.73,33.12,7.48,50.43,15.96c20.69,10.21,40.75,25.7,60.64,36.49
		c34.17,18.53,66.84,5.23,88.07-5.49c19.4-9.79,34.82-20.92,49.02-32.8c27.83-23.29,51.03-49.24,82.06-70.92
		c15.3,10.04,32.2,21.62,61.13,27.24c12.77,2.48,28.52,3.03,45.16,1.15c20.93-2.37,43.35-8.92,62.39-21.89
		c15.11-10.25,26.9-23.01,38.58-34.5c12.17-11.94,24.47-22.9,36.8-32.56c26.79-21,51.83-36.25,74.84-48.79
		c30.73-16.74,58.61-29.28,93.19-34.15c34.52-4.96,79.4-0.44,120.42,29.03c85.32,97.07,169.27,193.36,262.98,282.96
		c17.04,16.27,37.56,32.98,58.71,34.8c12.81,1.1,24.05-2.59,35.34-7.81c4.99-2.32,10.08-4.94,15.23-7.99
		c19.55-11.56,37.8-28.78,54.33-46.95c68.51-75.28,119.29-172.35,189.29-236.18"/>
	<path class="st35" d="M-72.61,412.94c22.83-38.32,55.61-68.84,100.07-82.16c40.9-12.36,87.97-6.43,129.32,10.79
		c16.3,6.79,31.58,15.18,46.15,23.98c21.57,13.04,42.65,27,63.03,44.05c5.71,4.76,11.39,9.78,16.98,15.12
		c17.46,16.67,33.38,35.95,49.5,54.47c12.41,14.26,25.08,28.18,38.2,41.5c23.98,24.34,51.66,46.79,78.14,54.2
		c59.11,16.76,72.98-23.57,134.99-18.28c15.89,1.36,33.29,6.86,50.67,15.22c20.76,10.05,40.82,25.54,60.6,36.52
		c33.4,18.54,65.32,6.41,86.09-3.13c18.97-8.71,34.04-18.7,47.93-29.41c27.23-20.99,50.01-44.52,80.32-63.94
		c15.22,11.28,32,24.13,61.06,30.73c12.81,2.91,28.68,3.83,45.43,2.19c21.08-2.06,43.65-8.48,62.7-21.59
		c15.11-10.36,26.79-23.34,38.34-35.08c12.04-12.2,24.2-23.46,36.39-33.46c26.48-21.74,51.29-37.95,74.14-51.54
		c30.52-18.16,58.32-32.32,93.19-38.59c34.82-6.36,80.4-3.01,122.04,26.01c86.44,96.78,171.68,192.63,266.44,281.88
		c17.23,16.21,37.96,32.85,59.27,34.31c12.89,0.88,24.13-3.12,35.39-8.58c4.98-2.42,10.05-5.15,15.18-8.28
		c19.48-11.88,37.69-29.22,54.23-47.48c68.56-75.68,119.79-172.54,189.26-237.55"/>
	<path class="st36" d="M-72.67,403.54c23.65-37.92,57.24-67.66,101.98-80.24c41.15-11.67,88.17-5.22,129.27,12.61
		c16.21,7.03,31.37,15.66,45.82,24.71c21.38,13.4,42.21,27.76,62.41,45.04c5.66,4.83,11.29,9.9,16.85,15.27
		c17.35,16.79,33.25,36.06,49.41,54.54c12.44,14.23,25.17,28.1,38.36,41.34c24.13,24.19,52.09,46.42,78.84,53.17
		c59.68,15.28,72.85-28.15,135.15-24.34c15.97,0.98,33.47,6.25,50.91,14.47c20.84,9.89,40.89,25.37,60.56,36.55
		c32.63,18.55,63.8,7.6,84.1-0.76c18.54-7.64,33.26-16.48,46.85-26.01c26.63-18.69,48.98-39.79,78.58-56.96
		c15.13,12.53,31.81,26.64,61,34.22c12.86,3.34,28.85,4.62,45.71,3.23c21.24-1.75,43.94-8.05,63.01-21.29
		c15.12-10.46,26.68-23.67,38.11-35.66c11.91-12.46,23.93-24.01,35.98-34.36c26.18-22.48,50.75-39.64,73.43-54.28
		c30.32-19.58,58.03-35.35,93.2-43.02c35.12-7.76,81.4-5.58,123.66,22.99c87.56,96.48,174.09,191.91,269.89,280.8
		c17.42,16.15,38.36,32.73,59.83,33.82c12.97,0.66,24.21-3.65,35.44-9.35c4.97-2.53,10.02-5.35,15.13-8.56
		c19.41-12.19,37.58-29.66,54.13-48.02c68.6-76.08,120.3-172.73,189.24-238.93"/>
	<path class="st37" d="M-72.73,394.13c24.47-37.52,58.86-66.48,103.88-78.31c41.41-10.98,88.38-4,129.23,14.42
		c16.13,7.27,31.17,16.14,45.48,25.44c21.19,13.77,41.78,28.52,61.8,46.04c5.61,4.89,11.19,10.02,16.72,15.43
		c17.24,16.91,33.13,36.17,49.32,54.61c12.47,14.2,25.25,28.01,38.53,41.18c24.28,24.05,52.53,46.05,79.53,52.15
		c60.25,13.81,72.72-32.74,135.31-30.4c16.05,0.6,33.65,5.64,51.15,13.73c20.91,9.73,40.95,25.2,60.52,36.58
		c31.86,18.54,62.28,8.79,82.11,1.6c18.11-6.56,32.48-14.27,45.76-22.62c26.03-16.38,47.96-35.06,76.83-49.97
		c15.05,13.77,31.62,29.14,60.93,37.71c12.91,3.77,29.01,5.42,45.98,4.27c21.39-1.44,44.24-7.61,63.32-20.99
		c15.12-10.56,26.57-24,37.87-36.24c11.77-12.72,23.66-24.57,35.57-35.26c25.87-23.22,50.21-41.33,72.72-57.03
		c30.11-21,57.74-38.39,93.21-47.46c35.42-9.16,82.4-8.14,125.29,19.97c88.68,96.19,176.5,191.19,273.35,279.73
		c17.61,16.08,38.77,32.6,60.39,33.33c13.04,0.44,24.3-4.17,35.49-10.12c4.95-2.64,9.99-5.55,15.08-8.84
		c19.34-12.51,37.47-30.1,54.03-48.55c68.65-76.48,120.8-172.92,189.22-240.3"/>
	<path class="st38" d="M-72.79,384.72C-47.51,347.6-12.3,319.41,33,308.34c41.66-10.28,88.58-2.78,129.19,16.23
		c16.04,7.51,30.96,16.62,45.15,26.18c20.99,14.14,41.34,29.28,61.19,47.03c5.56,4.96,11.1,10.14,16.58,15.59
		c17.12,17.03,33,36.28,49.24,54.68c12.5,14.17,25.34,27.93,38.69,41.01c24.42,23.91,52.97,45.68,80.23,51.12
		c60.82,12.34,72.59-37.33,135.47-36.46c16.13,0.22,33.82,5.02,51.39,12.99c20.98,9.58,41.03,25.02,60.47,36.61
		c31.1,18.54,60.75,9.98,80.12,3.96c17.68-5.49,31.71-12.05,44.67-19.23c25.43-14.08,46.93-30.33,75.09-42.99
		c14.96,15.02,31.43,31.65,60.87,41.2c12.96,4.2,29.18,6.21,46.25,5.31c21.55-1.14,44.54-7.18,63.63-20.7
		c15.13-10.66,26.46-24.33,37.63-36.82c11.64-12.98,23.39-25.13,35.17-36.16c25.56-23.96,49.68-43.03,72.01-59.77
		c29.9-22.41,57.44-41.42,93.21-51.9c35.72-10.56,83.4-10.71,126.91,16.96c89.79,95.89,178.91,190.46,276.8,278.65
		c17.8,16.02,39.17,32.47,60.95,32.84c13.12,0.22,24.38-4.7,35.54-10.89c4.94-2.74,9.96-5.75,15.03-9.13
		c19.27-12.83,37.36-30.53,53.93-49.08c68.7-76.88,121.3-173.11,189.19-241.67"/>
	<path class="st39" d="M-72.85,375.31c26.1-36.72,62.11-64.13,107.69-74.45c41.91-9.59,88.78-1.56,129.14,18.04
		c15.95,7.75,30.75,17.1,44.82,26.91c20.8,14.5,40.91,30.04,60.58,48.03c5.51,5.02,11,10.26,16.45,15.74
		c17.01,17.16,32.87,36.39,49.15,54.76c12.53,14.14,25.42,27.85,38.86,40.85c24.57,23.76,53.4,45.31,80.93,50.09
		c61.39,10.87,72.46-41.92,135.63-42.53c16.21-0.16,34,4.41,51.63,12.25c21.05,9.42,41.1,24.84,60.43,36.65
		c30.34,18.52,59.23,11.16,78.14,6.32c17.24-4.42,30.93-9.83,43.59-15.83c24.84-11.78,45.9-25.6,73.35-36
		c14.88,16.27,31.24,34.16,60.8,44.69c13.01,4.64,29.35,7,46.53,6.35c21.7-0.83,44.83-6.75,63.94-20.4
		c15.13-10.77,26.35-24.66,37.4-37.4c11.51-13.24,23.12-25.68,34.76-37.06c25.26-24.7,49.13-44.72,71.3-62.52
		c29.69-23.83,57.15-44.46,93.22-56.34c36.02-11.95,84.4-13.27,128.53,13.94c90.91,95.59,181.32,189.74,280.26,277.57
		c17.99,15.96,39.58,32.01,61.51,32.35c13.2,0.2,24.46-5.23,35.59-11.66c4.93-2.85,9.93-5.96,14.97-9.41
		c19.2-13.14,37.25-30.97,53.83-49.62c68.74-77.28,121.81-173.3,189.17-243.04"/>
	<path class="st40" d="M-72.91,365.9c26.92-36.32,63.73-62.95,109.59-72.52c42.16-8.89,88.99-0.34,129.1,19.86
		c15.86,7.99,30.54,17.58,44.48,27.64c20.61,14.87,40.47,30.79,59.97,49.02c5.46,5.09,10.91,10.37,16.32,15.9
		c16.89,17.28,32.75,36.5,49.06,54.83c12.56,14.11,25.51,27.76,39.02,40.69c24.72,23.62,53.84,44.94,81.62,49.07
		c61.96,9.39,72.33-46.51,135.79-48.59c16.29-0.53,34.17,3.8,51.88,11.51c21.12,9.26,41.17,24.66,60.39,36.68
		c29.59,18.5,57.71,12.35,76.15,8.68c16.81-3.34,30.15-7.61,42.5-12.44c24.24-9.48,44.88-20.87,71.6-29.02
		c14.79,17.51,31.05,36.66,60.74,48.18c13.06,5.07,29.51,7.8,46.8,7.39c21.85-0.52,45.13-6.31,64.25-20.1
		c15.13-10.87,26.24-24.99,37.16-37.98c11.38-13.5,22.85-26.24,34.35-37.96c24.95-25.44,48.59-46.41,70.59-65.26
		c29.48-25.25,56.86-47.49,93.22-60.77c36.32-13.35,85.4-15.84,130.15,10.92c92.03,95.3,183.73,189.01,283.71,276.5
		c18.18,15.89,39.98,32.22,62.07,31.86c13.28-0.22,24.54-5.76,35.64-12.43c4.91-2.96,9.9-6.16,14.92-9.7
		c19.13-13.46,37.13-31.41,53.73-50.15c68.79-77.68,122.31-173.49,189.15-244.41"/>
	<path class="st41" d="M-72.96,356.49c27.74-35.92,65.36-61.77,111.5-70.59c42.41-8.2,89.19,0.87,129.06,21.67
		c15.77,8.23,30.33,18.06,44.15,28.37c20.42,15.24,40.04,31.55,59.35,50.01c5.41,5.15,10.81,10.49,16.19,16.06
		c16.78,17.4,32.62,36.62,48.97,54.9c12.59,14.08,25.6,27.68,39.19,40.52c24.86,23.48,54.28,44.57,82.32,48.04
		c62.53,7.92,72.2-51.09,135.95-54.65c16.37-0.91,34.35,3.19,52.12,10.76c21.19,9.1,41.25,24.47,60.35,36.71
		c28.84,18.48,56.18,13.54,74.16,11.05c16.38-2.27,29.38-5.4,41.41-9.05c23.65-7.17,43.85-16.15,69.86-22.04
		c14.71,18.76,30.86,39.17,60.67,51.67c13.12,5.5,29.68,8.59,47.08,8.43c22.01-0.2,45.43-5.88,64.57-19.8
		c15.14-10.97,26.13-25.31,36.93-38.56c11.24-13.76,22.58-26.79,33.94-38.86c24.65-26.18,48.05-48.11,69.88-68
		c29.26-26.67,56.57-50.53,93.23-65.21c36.63-14.75,86.4-18.4,131.78,7.9c93.14,95,186.14,188.29,287.16,275.42
		c18.37,15.83,40.38,32.09,62.62,31.37c13.36-0.44,24.62-6.29,35.69-13.2c4.9-3.06,9.86-6.36,14.87-9.98
		c19.05-13.78,37.02-31.85,53.63-50.69c68.83-78.08,122.81-173.68,189.12-245.79"/>
	<path class="st42" d="M-73.02,347.08c28.55-35.52,66.98-60.6,113.4-68.66c42.66-7.5,89.39,2.09,129.01,23.48
		c15.69,8.47,30.12,18.54,43.82,29.11c20.22,15.6,39.6,32.31,58.74,51.01c5.36,5.22,10.72,10.61,16.05,16.21
		c16.66,17.52,32.49,36.73,48.89,54.97c12.63,14.05,25.68,27.6,39.35,40.36c25.01,23.33,54.71,44.2,83.01,47.01
		c63.11,6.45,72.07-55.68,136.11-60.71c16.45-1.29,34.52,2.57,52.36,10.02c21.26,8.94,41.33,24.28,60.31,36.74
		c28.1,18.45,54.66,14.72,72.17,13.41c15.94-1.2,28.61-3.18,40.33-5.65c23.06-4.87,42.83-11.42,68.12-15.05
		c14.62,20,30.67,41.67,60.61,55.16c13.17,5.93,29.84,9.39,47.35,9.47c22.16,0.11,45.72-5.45,64.88-19.5
		c15.14-11.07,26.02-25.64,36.69-39.13c11.11-14.02,22.3-27.35,33.53-39.76c24.34-26.91,47.51-49.8,69.18-70.75
		c29.05-28.09,56.27-53.56,93.24-69.65c36.93-16.15,87.4-20.97,133.4,4.88c94.26,94.71,188.55,187.56,290.62,274.34
		c18.56,15.77,40.79,31.97,63.18,30.87c13.44-0.65,24.7-6.82,35.74-13.97c4.89-3.17,9.83-6.57,14.82-10.26
		c18.98-14.1,36.91-32.28,53.53-51.22c68.88-78.48,123.32-173.87,189.1-247.16"/>
	<path class="st43" d="M-73.08,337.67c29.37-35.12,68.61-59.42,115.3-66.73c42.92-6.81,89.59,3.31,128.97,25.29
		c15.6,8.71,29.91,19.02,43.48,29.84c20.03,15.97,39.17,33.07,58.13,52c5.31,5.29,10.62,10.73,15.92,16.37
		c16.55,17.64,32.37,36.84,48.8,55.04c12.66,14.01,25.77,27.51,39.52,40.2c25.16,23.19,55.15,43.83,83.71,45.99
		c63.68,4.97,71.92-60.4,136.27-66.78c16.52-1.7,34.7,1.96,52.6,9.28c21.33,8.78,41.42,24.09,60.27,36.77
		c27.35,18.41,53.13,15.91,70.18,15.77c15.51-0.12,27.84-0.96,39.24-2.26c22.48-2.56,41.8-6.69,66.38-8.07
		c14.53,21.25,30.48,44.18,60.54,58.65c13.22,6.36,30.01,10.18,47.62,10.51c22.31,0.42,46.02-5.01,65.19-19.2
		c15.15-11.18,25.91-25.97,36.46-39.71c10.98-14.28,22.03-27.9,33.12-40.66c24.03-27.65,46.97-51.49,68.47-73.49
		c28.84-29.51,55.98-56.6,93.24-74.08c37.23-17.55,88.4-23.54,135.02,1.86c95.38,94.41,190.96,186.84,294.07,273.27
		c18.75,15.71,41.19,31.84,63.74,30.38c13.52-0.87,24.78-7.35,35.79-14.74c4.87-3.28,9.8-6.77,14.76-10.55
		c18.91-14.41,36.8-32.72,53.43-51.75c68.92-78.88,123.82-174.07,189.08-248.53"/>
	<path class="st44" d="M-73.14,328.26c30.19-34.72,70.23-58.24,117.21-64.8c43.17-6.11,89.8,4.53,128.93,27.11
		c15.51,8.95,29.7,19.5,43.15,30.57c19.84,16.34,38.73,33.83,57.52,53c5.26,5.35,10.53,10.85,15.79,16.52
		c16.43,17.76,32.24,36.95,48.71,55.11c12.69,13.98,25.85,27.43,39.68,40.03c25.3,23.05,55.59,43.46,84.41,44.96
		c64.25,3.5,71.79-64.98,136.43-72.84c16.6-2.08,34.88,1.35,52.84,8.54c21.4,8.62,41.51,23.89,60.23,36.8
		c26.62,18.37,51.61,17.09,68.2,18.13c15.07,0.95,27.06,1.26,38.15,1.13c21.89-0.25,40.77-1.96,64.63-1.09
		c14.45,22.5,30.29,46.69,60.48,62.14c13.27,6.79,30.17,10.98,47.9,11.55c22.47,0.73,46.31-4.58,65.5-18.91
		c15.15-11.28,25.8-26.3,36.22-40.29c10.85-14.54,21.79-28.44,32.72-41.56c23.78-28.35,46.42-53.19,67.76-76.24
		c28.62-30.92,55.69-59.63,93.25-78.52c37.53-18.95,89.4-26.1,136.64-1.15c96.49,94.12,193.37,186.11,297.53,272.19
		c18.94,15.64,41.59,31.71,64.3,29.89c13.59-1.09,24.87-7.88,35.84-15.51c4.86-3.38,9.77-6.97,14.71-10.83
		c18.84-14.73,36.69-33.16,53.33-52.29c68.97-79.28,124.32-174.26,189.05-249.9"/>
	<path class="st45" d="M-73.2,318.85c31.01-34.32,71.86-57.06,119.11-62.88c43.42-5.42,90,5.75,128.88,28.92
		c15.42,9.19,29.49,19.98,42.82,31.31c19.65,16.7,38.29,34.59,56.9,53.99c5.21,5.42,10.43,10.97,15.65,16.68
		c16.32,17.88,32.12,37.06,48.62,55.18c12.72,13.95,25.94,27.35,39.85,39.87c25.45,22.9,56.02,43.09,85.1,43.93
		c64.82,2.03,71.66-69.57,136.59-78.9c16.68-2.46,35.05,0.73,53.08,7.8c21.47,8.46,41.6,23.68,60.19,36.83
		c25.88,18.32,50.08,18.27,66.21,20.49c14.64,2.02,26.29,3.48,37.06,4.53c21.31,2.06,39.75,2.77,62.89,5.9
		c14.36,23.74,30.1,49.19,60.41,65.63c13.32,7.22,30.34,11.78,48.17,12.6c22.62,1.04,46.61-4.14,65.81-18.61
		c15.15-11.38,25.69-26.63,35.99-40.87c10.71-14.8,21.52-29,32.31-42.46c23.48-29.09,45.88-54.88,67.05-78.98
		c28.41-32.34,55.4-62.67,93.25-82.96c37.83-20.35,90.4-28.67,138.27-4.17c97.61,93.82,195.78,185.39,300.98,271.11
		c19.14,15.58,42,31.59,64.86,29.4c13.67-1.31,24.95-8.41,35.89-16.28c4.85-3.49,9.74-7.17,14.66-11.12
		c18.77-15.05,36.58-33.59,53.23-52.82c69.01-79.68,124.83-174.45,189.03-251.27"/>
	<path class="st46" d="M-73.26,309.44c31.82-33.92,73.48-55.89,121.02-60.95c43.67-4.72,90.2,6.97,128.84,30.73
		c15.33,9.43,29.28,20.46,42.48,32.04c19.45,17.07,37.86,35.35,56.29,54.98c5.16,5.48,10.34,11.09,15.52,16.84
		c16.2,18,31.99,37.18,48.53,55.25c12.75,13.92,26.03,27.26,40.01,39.71c25.6,22.76,56.46,42.73,85.8,42.91
		c65.39,0.56,71.52-74.15,136.75-84.96c16.76-2.83,35.23,0.12,53.32,7.05c21.54,8.3,41.7,23.47,60.15,36.86
		c25.16,18.27,48.56,19.45,64.22,22.86c14.2,3.09,25.52,5.71,35.98,7.92c20.72,4.38,38.72,7.5,61.15,12.88
		c14.28,24.99,29.91,51.7,60.35,69.12c13.37,7.65,30.5,12.57,48.44,13.64c22.77,1.35,46.91-3.71,66.12-18.31
		c15.16-11.48,25.59-26.96,35.75-41.45c10.58-15.06,21.25-29.55,31.9-43.36c23.17-29.83,45.33-56.57,66.34-81.73
		c28.19-33.76,55.1-65.7,93.26-87.39c38.13-21.74,91.4-31.23,139.89-7.19c98.73,93.53,198.19,184.67,304.44,270.03
		c19.33,15.52,42.4,31.47,65.42,28.91c13.75-1.53,25.03-8.94,35.94-17.05c4.83-3.6,9.71-7.38,14.61-11.4
		c18.69-15.36,36.47-34.03,53.13-53.35c69.06-80.08,125.33-174.64,189.01-252.65"/>
	<path class="st47" d="M-73.32,300.03c32.64-33.52,75.1-54.71,122.92-59.02c43.92-4.03,90.4,8.19,128.79,32.54
		c15.24,9.67,29.07,20.94,42.15,32.77c19.26,17.43,37.42,36.1,55.68,55.98c5.11,5.55,10.24,11.2,15.39,16.99
		c16.09,18.12,31.86,37.29,48.45,55.32c12.78,13.89,26.11,27.18,40.18,39.55c25.75,22.62,56.9,42.36,86.5,41.88
		c65.96-0.92,71.39-78.74,136.91-91.02c16.84-3.21,35.4-0.49,53.57,6.31c21.62,8.14,41.8,23.26,60.11,36.9
		c24.44,18.21,47.03,20.63,62.23,25.22c13.77,4.15,24.75,7.94,34.89,11.31c20.14,6.71,37.7,12.22,59.4,19.86
		c14.19,26.23,29.72,54.2,60.28,72.61c13.42,8.08,30.67,13.37,48.72,14.68c22.92,1.66,47.2-3.28,66.43-18.01
		c15.16-11.59,25.48-27.29,35.51-42.03c10.45-15.32,20.98-30.11,31.49-44.26c22.86-30.57,44.79-58.26,65.63-84.47
		c27.98-35.17,54.81-68.74,93.27-91.83c38.43-23.14,92.39-33.8,141.51-10.21c99.84,93.23,200.6,183.94,307.89,268.96
		c19.52,15.45,42.81,31.34,65.98,28.42c13.83-1.75,25.11-9.46,35.99-17.82c4.82-3.7,9.68-7.58,14.55-11.69
		c18.62-15.68,36.36-34.47,53.03-53.89c69.11-80.48,125.84-174.83,188.98-254.02"/>
	<path class="st48" d="M-73.38,290.63c33.46-33.12,76.73-53.53,124.82-57.09c44.17-3.34,90.6,9.41,128.75,34.36
		c15.15,9.91,28.89,21.4,41.82,33.51c19.11,17.76,36.99,36.86,55.07,56.97c5.06,5.61,10.14,11.32,15.25,17.15
		c15.97,18.25,31.74,37.4,48.36,55.4c12.81,13.86,26.2,27.1,40.34,39.38c25.89,22.47,57.33,41.99,87.19,40.85
		c66.53-2.39,71.26-83.32,137.07-97.09c16.91-3.59,35.58-1.1,53.81,5.57c21.69,7.99,41.91,23.04,60.06,36.93
		c23.72,18.15,45.51,21.81,60.25,27.58c13.33,5.22,23.98,10.17,33.8,14.71c19.55,9.03,36.67,16.95,57.66,26.85
		c14.11,27.48,29.53,56.71,60.22,76.1c13.47,8.52,30.83,14.16,48.99,15.72c23.08,1.97,47.5-2.84,66.74-17.71
		c15.17-11.69,25.37-27.61,35.28-42.61c10.32-15.58,20.71-30.67,31.08-45.16c22.56-31.32,44.24-59.95,64.92-87.21
		c27.76-36.59,54.52-71.77,93.27-96.27c38.73-24.54,93.39-36.37,143.13-13.23c100.96,92.94,203.01,183.22,311.34,267.88
		c19.71,15.39,43.21,31.22,66.53,27.93c13.91-1.96,25.19-9.99,36.04-18.59c4.81-3.81,9.64-7.79,14.5-11.97
		c18.52-16.04,36.25-34.91,52.93-54.42c69.15-80.88,126.34-175.02,188.96-255.39"/>
	<path class="st49" d="M-73.44,281.22c34.28-32.72,78.35-52.35,126.73-55.16c44.42-2.64,90.8,10.63,128.71,36.17
		c15.06,10.15,28.68,21.88,41.48,34.24c18.91,18.13,36.55,37.62,54.46,57.97c5.01,5.68,10.05,11.44,15.12,17.31
		c15.86,18.37,31.61,37.51,48.27,55.47c12.84,13.83,26.28,27.01,40.51,39.22c26.04,22.33,57.77,41.62,87.89,39.83
		c67.11-3.86,71.12-87.91,137.23-103.15c16.99-3.97,35.76-1.72,54.05,4.83c21.76,7.83,42.02,22.81,60.02,36.96
		c23.01,18.08,43.98,22.99,58.26,29.94c12.9,6.29,23.2,12.4,32.72,18.1c18.95,11.36,35.64,21.68,55.92,33.83
		c14.02,28.73,29.38,59.16,60.15,79.59c13.54,8.92,31,14.96,49.27,16.76c23.23,2.29,47.8-2.41,67.05-17.41
		c15.17-11.79,25.26-27.94,35.04-43.19c10.18-15.84,20.44-31.22,30.68-46.06c22.25-32.06,43.7-61.65,64.22-89.96
		c27.54-38.01,54.23-74.81,93.28-100.71c39.03-25.94,94.39-38.93,144.76-16.25c102.08,92.64,205.42,182.49,314.8,266.8
		c19.9,15.33,43.62,31.09,67.09,27.44c13.99-2.18,25.27-10.52,36.09-19.36c4.79-3.92,9.61-7.99,14.45-12.25
		c18.45-16.35,36.13-35.34,52.83-54.96c69.2-81.28,126.84-175.21,188.94-256.76"/>
	<path class="st50" d="M-73.5,271.81c35.09-32.32,79.98-51.17,128.63-53.23c44.68-1.95,90.95,11.92,128.66,37.98
		c14.95,10.42,28.47,22.36,41.15,34.97c18.72,18.5,36.12,38.38,53.84,58.96c4.96,5.74,9.95,11.56,14.99,17.46
		c15.74,18.49,31.48,37.62,48.18,55.54c12.87,13.8,26.37,26.93,40.67,39.06c26.19,22.19,58.21,41.25,88.58,38.8
		c67.68-5.34,70.99-92.49,137.39-109.21c17.07-4.34,35.93-2.33,54.29,4.09c21.83,7.67,42.14,22.58,59.98,36.99
		c22.31,18.01,42.46,24.17,56.27,32.31c12.47,7.35,22.42,14.63,31.63,21.49c18.36,13.69,34.62,26.41,54.17,40.81
		c13.94,29.97,29.2,61.67,60.09,83.08c13.59,9.35,31.16,15.76,49.54,17.8c23.38,2.6,48.09-1.98,67.36-17.11
		c15.18-11.9,25.15-28.27,34.81-43.77c10.05-16.1,20.16-31.78,30.27-46.96c21.94-32.8,43.15-63.34,63.51-92.7
		c27.32-39.42,53.93-77.84,93.29-105.14c39.33-27.34,95.39-41.5,146.38-19.26c103.19,92.34,207.83,181.77,318.25,265.73
		c20.09,15.27,44.03,30.97,67.65,26.94c14.07-2.4,25.35-11.05,36.14-20.13c4.78-4.02,9.58-8.2,14.4-12.54
		c18.37-16.67,36.02-35.78,52.73-55.49c69.24-81.68,127.35-175.4,188.91-258.13"/>
	<path class="st51" d="M-73.55,262.4c35.91-31.92,81.6-50,130.54-51.3c44.93-1.25,91.15,13.14,128.62,39.79
		c14.87,10.66,28.26,22.84,40.82,35.71c18.53,18.87,35.68,39.14,53.23,59.95c4.91,5.81,9.86,11.68,14.85,17.62
		c15.63,18.61,31.36,37.73,48.1,55.61c12.9,13.77,26.46,26.85,40.84,38.89c26.33,22.05,58.65,40.88,89.28,37.77
		c68.25-6.81,70.86-97.08,137.55-115.27c17.15-4.72,36.11-2.94,54.53,3.34c21.9,7.51,42.26,22.34,59.94,37.02
		c21.61,17.94,40.94,25.34,54.28,34.67c12.04,8.42,21.64,16.86,30.54,24.89c17.75,16.02,33.59,31.14,52.43,47.8
		c13.85,31.22,29.01,64.18,60.02,86.57c13.64,9.79,31.33,16.55,49.81,18.84c23.53,2.91,48.39-1.54,67.67-16.82
		c15.18-12,25.04-28.6,34.57-44.34c9.92-16.36,19.89-32.34,29.86-47.86c21.64-33.54,42.55-65.06,62.8-95.45
		c27.03-40.89,53.64-80.88,93.29-109.58c39.63-28.74,96.39-44.06,148-22.28c104.31,92.05,210.24,181.04,321.71,264.65
		c20.28,15.2,44.43,30.85,68.21,26.45c14.15-2.62,25.44-11.58,36.19-20.9c4.77-4.13,9.55-8.4,14.34-12.82
		c18.3-16.98,35.91-36.22,52.63-56.02c69.29-82.08,127.85-175.59,188.89-259.51"/>
	<path class="st52" d="M-73.61,252.99c36.73-31.52,83.23-48.82,132.44-49.37c45.18-0.56,91.36,14.35,128.58,41.61
		c14.78,10.89,28.05,23.32,40.48,36.44c18.33,19.24,35.25,39.9,52.62,60.95c4.85,5.87,9.76,11.8,14.72,17.78
		c15.51,18.73,31.23,37.85,48.01,55.68c12.93,13.74,26.54,26.76,41,38.73c26.48,21.9,59.08,40.51,89.98,36.74
		c68.82-8.28,70.72-101.66,137.71-121.33c17.23-5.1,36.28-3.56,54.77,2.6c21.97,7.35,42.4,22.1,59.9,37.05
		c20.92,17.87,39.42,26.52,52.29,37.03c11.61,9.48,20.86,19.09,29.46,28.28c17.15,18.35,32.57,35.87,50.69,54.78
		c13.76,32.46,28.82,66.69,59.96,90.06c13.7,10.22,31.49,17.35,50.09,19.88c23.69,3.22,48.68-1.11,67.98-16.52
		c15.18-12.1,24.93-28.93,34.34-44.92c9.79-16.62,19.62-32.89,29.45-48.76c21.33-34.28,42.01-66.75,62.09-98.19
		c26.82-42.29,53.35-83.91,93.3-114.02c39.93-30.14,97.39-46.63,149.62-25.3c105.43,91.75,212.65,180.32,325.16,263.57
		c20.47,15.14,44.84,30.73,68.77,25.96c14.23-2.83,25.52-12.11,36.24-21.67c4.75-4.24,9.52-8.6,14.29-13.11
		c18.23-17.3,35.8-36.66,52.53-56.56c69.33-82.48,128.35-175.78,188.87-260.88"/>
	<path class="st53" d="M-73.67,243.58c37.55-31.12,84.85-47.64,134.34-47.44c45.43,0.14,91.56,15.57,128.53,43.42
		c14.69,11.13,27.84,23.81,40.15,37.17c18.14,19.6,34.81,40.66,52.01,61.94c4.8,5.94,9.67,11.91,14.59,17.93
		c15.4,18.85,31.11,37.96,47.92,55.75c12.96,13.71,26.63,26.68,41.17,38.57c26.63,21.76,59.52,40.14,90.67,35.72
		c69.39-9.75,70.59-106.25,137.87-127.4c17.31-5.47,36.46-4.17,55.02,1.86c22.04,7.19,42.54,21.85,59.86,37.08
		c20.23,17.79,37.91,27.7,50.31,39.39c11.18,10.54,20.08,21.32,28.37,31.67c16.54,20.67,34.93,38.21,48.94,61.76
		c18.6,31.26,28.63,69.2,59.89,93.55c13.75,10.66,31.65,18.18,50.36,20.92c23.83,3.58,48.98-0.67,68.3-16.22
		c15.19-12.2,24.82-29.26,34.1-45.5c9.65-16.88,19.35-33.45,29.04-49.66c21.02-35.03,41.47-68.44,61.38-100.94
		c26.61-43.7,53.05-86.95,93.3-118.45c40.23-31.53,98.39-49.19,151.25-28.32c106.55,91.46,215.06,179.6,328.61,262.5
		c20.66,15.08,45.25,30.6,69.33,25.47c14.31-3.05,25.6-12.64,36.29-22.44c4.74-4.34,9.48-8.8,14.24-13.39
		c18.16-17.61,35.69-37.09,52.43-57.09c69.38-82.88,128.86-175.98,188.85-262.25"/>
	<path class="st54" d="M-73.73,234.17c38.36-30.72,86.48-46.46,136.25-45.51c45.68,0.83,91.76,16.78,128.49,45.23
		c14.6,11.37,27.63,24.29,39.82,37.91c17.95,19.97,34.37,41.42,51.4,62.94c4.75,6,9.57,12.03,14.46,18.09
		c15.28,18.97,30.98,38.07,47.83,55.82c12.99,13.68,26.71,26.6,41.34,38.41c26.77,21.62,59.96,39.77,91.37,34.69
		c69.96-11.23,70.46-110.83,138.03-133.46c17.39-5.85,36.63-4.78,55.26,1.12c22.11,7.03,42.69,21.6,59.82,37.11
		c19.55,17.71,36.39,28.87,48.32,41.75c10.75,11.61,19.3,23.54,27.28,35.07c15.93,22.99,33.54,43.44,47.2,68.75
		c17.81,33,28.44,71.71,59.83,97.04c13.8,11.09,31.82,18.98,50.63,21.96c23.98,3.89,49.28-0.24,68.61-15.92
		c15.19-12.31,24.71-29.59,33.87-46.08c9.52-17.14,19.08-34.01,28.63-50.56c20.72-35.77,40.93-70.12,60.67-103.68
		c26.4-45.11,52.76-89.98,93.31-122.89c40.53-32.93,99.39-51.76,152.87-31.34c107.66,91.16,217.47,178.87,332.07,261.42
		c20.85,15.02,45.65,30.48,69.89,24.98c14.39-3.27,25.68-13.17,36.34-23.21c4.72-4.45,9.45-9,14.19-13.67
		c18.09-17.93,35.58-37.53,52.33-57.62c69.43-83.28,129.36-176.17,188.82-263.62"/>
	<path class="st55" d="M-73.79,224.76c39.18-30.32,88.1-45.29,138.15-43.59c45.93,1.53,91.97,18,128.45,47.04
		c14.51,11.61,27.42,24.77,39.48,38.64c17.75,20.34,33.94,42.17,50.78,63.93c4.7,6.07,9.48,12.15,14.32,18.25
		c15.17,19.09,30.85,38.18,47.75,55.89c13.02,13.65,26.8,26.51,41.5,38.24c26.92,21.47,60.39,39.4,92.07,33.66
		c70.53-12.7,70.32-115.41,138.19-139.52c17.46-6.23,36.81-5.39,55.5,0.38c22.18,6.87,42.85,21.34,59.78,37.15
		c18.88,17.63,34.87,30.05,46.33,44.12c10.33,12.68,18.49,25.78,26.2,38.46c15.28,25.34,32.12,48.59,45.46,75.73
		c17.04,34.68,28.25,74.22,59.76,100.53c13.85,11.52,31.98,19.77,50.91,23c24.13,4.2,49.57,0.19,68.92-15.62
		c15.2-12.41,24.6-29.91,33.63-46.66c9.39-17.4,18.81-34.57,28.23-51.46c20.41-36.51,40.39-71.81,59.96-106.42
		c26.19-46.52,52.47-93.02,93.32-127.33c40.83-34.33,100.39-54.33,154.49-34.35c108.78,90.87,219.88,178.15,335.52,260.34
		c21.04,14.95,46.06,30.36,70.45,24.49c14.47-3.48,25.76-13.7,36.39-23.98c4.71-4.56,9.42-9.21,14.13-13.96
		c18.02-18.24,35.47-37.97,52.23-58.16c69.47-83.68,129.86-176.36,188.8-264.99"/>
	<path class="st56" d="M-73.85,215.35c40-29.92,89.72-44.11,140.06-41.66c46.19,2.22,92.17,19.21,128.4,48.86
		c14.42,11.85,27.21,25.25,39.15,39.37c17.56,20.71,33.5,42.93,50.17,64.92c4.65,6.13,9.38,12.27,14.19,18.4
		c15.05,19.21,30.73,38.29,47.66,55.96c13.06,13.62,26.89,26.43,41.67,38.08c27.07,21.33,60.83,39.03,92.76,32.64
		c71.11-14.17,70.19-120,138.35-145.58c17.54-6.61,36.99-6.01,55.74-0.37c22.25,6.71,43.01,21.08,59.74,37.18
		c18.22,17.54,33.38,31.21,44.34,46.48c9.92,13.73,17.71,28,25.11,41.85c14.67,27.65,30.68,53.68,43.71,82.72
		c16.29,36.29,28.06,76.73,59.7,104.02c13.9,11.96,32.15,20.56,51.18,24.04c24.29,4.5,49.87,0.63,69.23-15.32
		c15.2-12.51,24.49-30.24,33.39-47.24c9.26-17.66,18.54-35.12,27.82-52.36c20.1-37.25,39.85-73.5,59.26-109.17
		c25.98-47.93,52.18-96.05,93.32-131.77c41.13-35.73,101.39-56.89,156.11-37.37c109.9,90.57,222.29,177.42,338.98,259.26
		c21.23,14.89,46.48,30.28,71,24c14.56-3.67,25.84-14.23,36.45-24.75c4.7-4.67,9.39-9.41,14.08-14.24
		c17.94-18.56,35.36-38.4,52.13-58.69c69.52-84.08,130.37-176.55,188.78-266.37"/>
	<path class="st57" d="M-73.91,205.94c40.82-29.52,91.35-42.93,141.96-39.73c46.44,2.92,92.37,20.42,128.36,50.67
		c14.34,12.08,27.01,25.73,38.82,40.11c17.37,21.08,33.07,43.69,49.56,65.92c4.6,6.2,9.29,12.39,14.06,18.56
		c14.94,19.34,30.6,38.41,47.57,56.04c13.09,13.59,26.97,26.35,41.83,37.92c27.21,21.19,61.27,38.66,93.46,31.61
		c71.68-15.65,70.06-124.58,138.51-151.64c17.62-6.98,37.16-6.62,55.98-1.11c22.32,6.55,43.19,20.8,59.7,37.21
		c17.57,17.46,31.86,32.4,42.36,48.84c9.49,14.8,16.93,30.23,24.02,45.25c14.07,29.97,29.22,58.71,41.97,89.7
		c15.57,37.85,27.87,79.25,59.63,107.51c13.95,12.39,32.31,21.35,51.46,25.08c24.44,4.81,50.17,1.06,69.54-15.03
		c15.2-12.61,24.38-30.57,33.16-47.82c9.12-17.91,18.27-35.68,27.41-53.26c19.8-37.99,39.31-75.18,58.55-111.91
		c25.77-49.34,51.88-99.09,93.33-136.2c41.44-37.13,102.39-59.46,157.74-40.39c111.01,90.28,224.7,176.7,342.43,258.19
		c21.43,14.83,46.89,30.15,71.56,23.51c14.64-3.89,25.92-14.75,36.5-25.52c4.68-4.77,9.36-9.61,14.03-14.53
		c17.87-18.87,35.25-38.84,52.03-59.23c69.56-84.48,130.87-176.74,188.75-267.74"/>
	<path class="st58" d="M-73.97,196.53c41.64-29.11,92.97-41.75,143.86-37.8c46.69,3.61,92.57,21.64,128.32,52.48
		c14.25,12.32,26.8,26.21,38.48,40.84c17.18,21.45,32.63,44.45,48.95,66.91c4.55,6.26,9.19,12.51,13.92,18.72
		c14.82,19.46,30.47,38.52,47.48,56.11c13.12,13.56,27.06,26.26,42,37.75c27.36,21.04,61.7,38.29,94.15,30.58
		c72.25-17.12,69.92-129.17,138.67-157.71c17.7-7.36,37.34-7.23,56.22-1.85c22.39,6.4,43.38,20.53,59.65,37.24
		c16.92,17.38,30.34,33.58,40.37,51.2c9.06,15.87,16.15,32.45,22.93,48.64c13.47,32.28,27.76,63.7,40.23,96.68
		c14.88,39.36,27.68,81.76,59.57,111c14,12.82,32.47,22.15,51.73,26.13c24.59,5.12,50.46,1.49,69.85-14.73
		c15.21-12.72,24.27-30.9,32.92-48.4c8.99-18.17,18-36.24,27-54.16c19.49-38.74,38.76-76.87,57.84-114.66
		c25.56-50.75,51.59-102.12,93.33-140.64c41.74-38.53,103.39-62.02,159.36-43.41c112.13,89.98,227.11,175.97,345.89,257.11
		c21.62,14.76,47.29,30.02,72.12,23.02c14.72-4.12,26.01-15.28,36.55-26.29c4.67-4.88,9.33-9.81,13.98-14.81
		c17.8-19.19,35.13-39.28,51.93-59.76c69.61-84.88,131.38-176.93,188.73-269.11"/>
	<path class="st59" d="M-74.03,187.13c42.45-28.71,94.6-40.58,145.77-35.87c46.94,4.31,92.78,22.85,128.27,54.3
		c14.16,12.56,26.59,26.7,38.15,41.57c16.98,21.82,32.2,45.21,48.34,67.91c4.5,6.33,9.1,12.63,13.79,18.87
		c14.71,19.58,30.35,38.63,47.4,56.18c13.15,13.53,27.14,26.18,42.16,37.59c27.51,20.9,62.14,37.92,94.85,29.56
		c72.82-18.59,69.79-133.75,138.83-163.77c17.78-7.74,37.51-7.85,56.46-2.59c22.47,6.24,43.58,20.24,59.61,37.27
		c16.28,17.29,28.83,34.76,38.38,53.56c8.63,16.94,15.37,34.67,21.85,52.03c12.87,34.59,26.28,68.64,38.48,103.67
		c14.22,40.83,27.49,84.27,59.5,114.49c14.05,13.26,32.64,22.94,52,27.17c24.74,5.43,50.76,1.93,70.16-14.43
		c15.21-12.82,24.16-31.23,32.69-48.97c8.86-18.43,17.73-36.79,26.59-55.06c19.18-39.48,38.22-78.55,57.13-117.4
		c25.34-52.16,51.3-105.16,93.34-145.08c42.04-39.93,104.39-64.59,160.98-46.43c113.25,89.68,229.52,175.25,349.34,256.03
		c21.81,14.7,47.7,29.89,72.68,22.52c14.8-4.34,26.09-15.81,36.6-27.06c4.66-4.99,9.3-10.02,13.92-15.1
		c17.73-19.5,35.02-39.72,51.83-60.29c69.65-85.28,131.88-177.12,188.71-270.48"/>
	<path class="st60" d="M-74.09,177.72c43.27-28.31,96.22-39.4,147.67-33.94c47.19,5,92.98,24.07,128.23,56.11
		c14.07,12.8,26.38,27.18,37.82,42.31c16.79,22.18,31.76,45.97,47.72,68.9c4.45,6.39,9,12.74,13.66,19.03
		c14.59,19.7,30.22,38.74,47.31,56.25c13.18,13.5,27.23,26.1,42.33,37.43c27.65,20.76,62.58,37.55,95.55,28.53
		c73.39-20.06,69.66-138.34,138.99-169.83c17.86-8.12,37.69-8.46,56.71-3.33c22.54,6.08,43.8,19.95,59.57,37.3
		c15.65,17.21,27.31,35.95,36.39,55.93c8.2,18.01,14.59,36.89,20.76,55.43c12.27,36.9,24.81,73.55,36.74,110.65
		c13.59,42.27,27.3,86.78,59.44,117.98c14.1,13.69,32.8,23.73,52.28,28.21c24.89,5.73,51.06,2.36,70.47-14.13
		c15.22-12.92,24.05-31.56,32.45-49.55c8.73-18.69,17.46-37.35,26.19-55.96c18.88-40.22,37.68-80.24,56.42-120.15
		c25.13-53.56,51.01-108.19,93.35-149.51c42.34-41.32,105.39-67.15,162.6-49.45c114.36,89.39,231.93,174.53,352.79,254.96
		c22,14.64,48.1,29.76,73.24,22.03c14.88-4.56,26.17-16.34,36.65-27.83c4.64-5.09,9.27-10.22,13.87-15.38
		c17.66-19.82,34.91-40.15,51.73-60.83c69.7-85.68,132.38-177.31,188.68-271.85"/>
	<path class="st61" d="M-74.14,168.31c84.52-53.52,204.59-42.32,277.76,25.91c34.49,32.16,58.05,73.97,84.6,112.93
		c28.83,42.32,62.11,82.27,103.24,112.77c27.8,20.61,63.01,37.18,96.24,27.5c73.96-21.54,69.52-142.92,139.15-175.89
		c39.18-18.55,87.89,0.67,116.48,33.26s41.72,75.56,54.08,117.11c11.67,39.21,23.33,78.42,35,117.63
		c12.99,43.68,27.11,89.29,59.37,121.48c32.26,32.18,88.71,45.04,123.33,15.42c15.22-13.03,23.94-31.89,32.22-50.13
		c27.16-59.92,54.33-119.83,81.49-179.75c24.92-54.97,50.71-111.23,93.35-153.95c42.64-42.72,106.39-69.72,164.23-52.46
		c115.48,89.09,234.34,173.8,356.25,253.88c22.19,14.58,48.51,29.63,73.8,21.54c14.96-4.78,26.25-16.87,36.7-28.6
		c96.1-107.88,181.37-225.41,254.11-350.25"/>
</g>
</svg>
